<svg id="cod" xmlns="http://www.w3.org/2000/svg" width="37" height="24" viewBox="0 0 37 24">
  <rect id="Rectangle_72" data-name="Rectangle 72" width="37" height="24" rx="12" fill="none"/>
  <g id="Group_46" data-name="Group 46" transform="translate(8.23 1.822)">
    <g id="Group_40" data-name="Group 40" transform="translate(1.456 10.118)">
      <g id="Group_38" data-name="Group 38" transform="translate(10.921)">
        <path id="Path_58" data-name="Path 58" d="M401.2,412.56c.705,2.925-.921,6.328-2.075,8.26a8.586,8.586,0,0,0,6.247-8.26Z" transform="translate(-399.122 -412.56)" fill="#0170c2"/>
      </g>
      <g id="Group_39" data-name="Group 39" transform="translate(0 0)">
        <path id="Path_59" data-name="Path 59" d="M393.037,419.392a6.287,6.287,0,0,1,1.05-4.316,5.033,5.033,0,0,0,.834-2.515h-5.273A8.566,8.566,0,0,0,393.037,419.392Z" transform="translate(-389.648 -412.561)" fill="#0170c2"/>
      </g>
    </g>
    <g id="Group_41" data-name="Group 41" transform="translate(1.458 1.454)">
      <path id="Path_60" data-name="Path 60" d="M405.594,405.107H390.878a1.225,1.225,0,0,1-1.225,1.225v4.905a1.228,1.228,0,0,1,1.225,1.225h4.091c-.01-1.015-.123-1.984-.173-2.68a1.519,1.519,0,0,1,1.03-1.51,2.55,2.55,0,0,1,2.409-2.249,2.778,2.778,0,0,1,0,5.518,2.238,2.238,0,0,1-.353-.031q-.007.507.009.95h7.7a1.226,1.226,0,0,1,1.225-1.225v-4.906a1.225,1.225,0,0,1-1.225-1.225Zm-12.877,4.751a1.073,1.073,0,1,1,1.073-1.073A1.073,1.073,0,0,1,392.717,409.858Zm11.038,0a1.073,1.073,0,1,1,1.073-1.073,1.073,1.073,0,0,1-1.073,1.073Z" transform="translate(-389.653 -405.106)" fill="#86ccff"/>
    </g>
    <g id="Group_45" data-name="Group 45" transform="translate(0)">
      <g id="Group_42" data-name="Group 42" transform="translate(14.257 3.85)">
        <path id="Path_61" data-name="Path 61" d="M402.057,409.784a1.3,1.3,0,1,0-1.3-1.3A1.3,1.3,0,0,0,402.057,409.784Zm0-2.146a.843.843,0,1,1-.843.843.843.843,0,0,1,.843-.843Z" transform="translate(-400.754 -407.178)" fill="#1f1d21"/>
      </g>
      <g id="Group_43" data-name="Group 43" transform="translate(3.219 3.85)">
        <path id="Path_62" data-name="Path 62" d="M392.48,409.784a1.3,1.3,0,1,0-1.3-1.3,1.3,1.3,0,0,0,1.3,1.3Zm0-2.146a.843.843,0,1,1-.843.843A.843.843,0,0,1,392.48,407.638Z" transform="translate(-391.177 -407.178)" fill="#1f1d21"/>
      </g>
      <g id="Group_44" data-name="Group 44">
        <path id="Path_63" data-name="Path 63" d="M408.237,403.849H388.615a.231.231,0,0,0-.23.23v9.849a.232.232,0,0,0,.23.232h6.239a4.556,4.556,0,0,1-.761,2.156c-2.258,3.064-.455,7.371-.378,7.553a.23.23,0,0,0,.212.14.225.225,0,0,0,.09-.018.231.231,0,0,0,.121-.3c-.018-.043-1.774-4.247.325-7.1a5.577,5.577,0,0,0,.912-3.066,20.577,20.577,0,0,0-.107-2.9c-.02-.228-.038-.44-.052-.632a1.241,1.241,0,0,1,.491-1.068,1.387,1.387,0,0,1,1.282-.238,1.427,1.427,0,0,1,.927,1.483,21.2,21.2,0,0,0-.015,3.364,7.539,7.539,0,0,0,.705,2.835.231.231,0,0,0,.406-.219,6.113,6.113,0,0,1-.575-1.988h4.213c.866,4.2-3.054,9.424-3.095,9.477a.232.232,0,0,0,.044.325.228.228,0,0,0,.322-.044c.169-.221,4.035-5.373,3.2-9.757h5.117a.231.231,0,0,0,.23-.232v-9.85A.23.23,0,0,0,408.237,403.849Zm-11.109,4.4a1.815,1.815,0,0,0-.8-.067,2.269,2.269,0,0,1,2.1-1.713,2.562,2.562,0,0,1,0,5.078c-.039,0-.077,0-.115-.006.01-.428.029-.87.064-1.336a1.894,1.894,0,0,0-1.246-1.957Zm10.879,5.453h-9.627c-.007-.07-.016-.134-.022-.207-.04-.461-.059-.96-.058-1.492.042,0,.083.007.125.007a3.019,3.019,0,0,0,0-6,2.764,2.764,0,0,0-2.608,2.318,1.87,1.87,0,0,0-.4.238,1.721,1.721,0,0,0-.665,1.465c.014.193.032.407.053.639a20.1,20.1,0,0,1,.1,2.836c0,.068-.01.132-.015.2h-6.056v-9.387h19.163Z" transform="translate(-388.385 -403.849)" fill="#1f1d21"/>
      </g>
    </g>
  </g>
</svg>
