<svg xmlns="http://www.w3.org/2000/svg" xmlns:xlink="http://www.w3.org/1999/xlink" width="282" height="176.631" viewBox="0 0 282 176.631">
  <defs>
    <linearGradient id="linear-gradient" x1="0.5" y1="-0.227" x2="0.5" y2="0.708" gradientUnits="objectBoundingBox">
      <stop offset="0" stop-color="#e5e5e5"/>
      <stop offset="0.603" stop-color="#eeeeef"/>
      <stop offset="1" stop-color="#eef2f9"/>
    </linearGradient>
    <linearGradient id="linear-gradient-2" x2="1" y2="1" gradientUnits="objectBoundingBox">
      <stop offset="0" stop-color="#ffbd69"/>
      <stop offset="1" stop-color="#ff6363"/>
    </linearGradient>
  </defs>
  <g id="empty_cart" transform="translate(-951.928 -424.488)">
    <g id="Group_4865" data-name="Group 4865" transform="translate(951.927 539.606)">
      <g id="Plant" transform="translate(225.046 4.51)">
        <path id="Path_5192" data-name="Path 5192" d="M127.211,393.547c4.152-2.879,5.11-8.249,4.966-13.08a5.316,5.316,0,0,0-.308-2.364,1.637,1.637,0,0,0-2-.857c-.6.281-.863.974-1.2,1.542a4.716,4.716,0,0,1-1.9,1.8,1.8,1.8,0,0,1-1.656.145c-.694-.385-.774-1.347-.764-2.158l.043-4.482a7.476,7.476,0,0,0-.228-2.368,2.486,2.486,0,0,0-1.557-1.686,1.508,1.508,0,0,0-1.871,1.005,7.4,7.4,0,0,0-.028,1,.845.845,0,0,1-.5.792.981.981,0,0,1-.878-.37,10.508,10.508,0,0,1-1.905-2.9,14.463,14.463,0,0,0-1.776-2.987,4.34,4.34,0,0,0-2.931-1.659,2.6,2.6,0,0,0-2.67,1.763,3.885,3.885,0,0,0,1.077,3.2,17.907,17.907,0,0,0,3.7,3.567,1.474,1.474,0,0,1,.616.672c.173.536-.336,1.064-.863,1.233a9.105,9.105,0,0,1-1.871.2,1.8,1.8,0,0,0-1.541.925c-.33.817.351,1.68,1.024,2.244a15.332,15.332,0,0,0,4.529,2.636,5.171,5.171,0,0,1,1.683.827,1.305,1.305,0,0,1-1.178,2.318,11.5,11.5,0,0,1-1.757-.678,2.808,2.808,0,0,0-3.234.6,2.537,2.537,0,0,0-.278,2.244,5.857,5.857,0,0,0,1.205,1.986,15.415,15.415,0,0,0,6.569,4.649,10.59,10.59,0,0,0,7.466.222" transform="translate(-109.986 -364.916)" fill="#bdbdbd"/>
        <path id="Path_5193" data-name="Path 5193" d="M129.715,396.422a16.263,16.263,0,0,0-.962-4.393,71.829,71.829,0,0,0-2.824-7.747l-.845-1.991c-.278-.654-.555-1.3-.866-1.918a35.875,35.875,0,0,0-1.991-3.434c-.684-1.064-1.372-2.05-2.019-2.966s-1.278-1.757-1.877-2.5a28.467,28.467,0,0,0-3.083-3.292c-.395-.358-.709-.616-.925-.808l-.247-.2a.594.594,0,0,0-.086-.065.566.566,0,0,0,.077.077l.237.213c.21.185.518.462.906.827a30.107,30.107,0,0,1,3.052,3.316c.595.746,1.212,1.588,1.85,2.506s1.328,1.905,2.007,2.969a36.281,36.281,0,0,1,1.967,3.434c.308.616.58,1.258.86,1.911l.845,1.991a73.655,73.655,0,0,1,2.831,7.725,16.456,16.456,0,0,1,.986,4.362" transform="translate(-112.755 -366.431)" fill="#263238"/>
        <path id="Path_5194" data-name="Path 5194" d="M147,390.365a1.625,1.625,0,0,0,.08-.342c.043-.222.1-.543.15-.943.117-.8.24-1.905.37-3.126s.268-2.324.4-3.12c.062-.4.117-.718.157-.925a1.606,1.606,0,0,0,.046-.348,1.6,1.6,0,0,0-.1.336c-.059.219-.125.536-.2.925-.154.792-.308,1.9-.441,3.12l-.326,3.129-.1.946a1.6,1.6,0,0,0-.025.348Z" transform="translate(-135.588 -376.429)" fill="#263238"/>
        <path id="Path_5195" data-name="Path 5195" d="M113.577,403.739a2.239,2.239,0,0,0,.41.05c.265.025.647.059,1.119.114.943.1,2.244.308,3.665.57s2.7.579,3.619.83c.459.12.829.228,1.085.308a2.211,2.211,0,0,0,.4.1,2.212,2.212,0,0,0-.385-.154c-.251-.089-.616-.213-1.077-.345-.925-.276-2.192-.595-3.619-.872a36.378,36.378,0,0,0-3.684-.526c-.476-.043-.86-.062-1.125-.068a2.176,2.176,0,0,0-.41,0Z" transform="translate(-112.469 -391.767)" fill="#263238"/>
        <path id="Path_5196" data-name="Path 5196" d="M161.44,417.842a.525.525,0,0,0,.071-.125l.179-.373c.154-.324.361-.8.616-1.387.5-1.181,1.144-2.831,1.825-4.661s1.31-3.487,1.785-4.673l.567-1.406.15-.382a.53.53,0,0,0,.043-.139.542.542,0,0,0-.071.125l-.179.373c-.154.324-.361.8-.616,1.387-.5,1.181-1.144,2.831-1.829,4.661s-1.31,3.487-1.785,4.673l-.567,1.406-.15.382a.541.541,0,0,0-.04.139Z" transform="translate(-145.578 -392.432)" fill="#263238"/>
        <path id="Path_5197" data-name="Path 5197" d="M117.05,432.86a.548.548,0,0,0,.136.055l.4.136,1.464.481c1.233.407,2.941.986,4.821,1.631s3.592,1.208,4.837,1.591c.616.191,1.127.339,1.48.435l.4.108a.536.536,0,0,0,.145.028.561.561,0,0,0-.136-.055l-.4-.136-1.453-.481c-1.233-.407-2.941-.986-4.821-1.631s-3.588-1.208-4.837-1.591c-.616-.191-1.127-.339-1.48-.435l-.407-.108A.536.536,0,0,0,117.05,432.86Z" transform="translate(-114.872 -411.914)" fill="#263238"/>
      </g>
      <g id="Plant-2" data-name="Plant" transform="translate(236.067 0)">
        <path id="Path_5192-2" data-name="Path 5192" d="M117.441,407.784c-6.218-4.311-7.653-12.352-7.436-19.585a7.952,7.952,0,0,1,.462-3.54,2.451,2.451,0,0,1,2.991-1.283c.9.42,1.293,1.459,1.8,2.308a7.062,7.062,0,0,0,2.839,2.7,2.692,2.692,0,0,0,2.48.217c1.039-.576,1.159-2.017,1.145-3.231l-.065-6.711a11.194,11.194,0,0,1,.342-3.545,3.722,3.722,0,0,1,2.331-2.525,2.258,2.258,0,0,1,2.8,1.5,11.076,11.076,0,0,1,.042,1.5,1.265,1.265,0,0,0,.743,1.186,1.47,1.47,0,0,0,1.316-.554,15.75,15.75,0,0,0,2.853-4.339,21.63,21.63,0,0,1,2.659-4.473,6.5,6.5,0,0,1,4.39-2.483,3.9,3.9,0,0,1,4,2.64c.443,1.688-.54,3.411-1.611,4.787a26.814,26.814,0,0,1-5.539,5.34,2.206,2.206,0,0,0-.923,1.006c-.259.8.5,1.592,1.293,1.846a13.651,13.651,0,0,0,2.8.3,2.689,2.689,0,0,1,2.308,1.385c.494,1.223-.526,2.516-1.533,3.36a22.957,22.957,0,0,1-6.781,3.947,7.741,7.741,0,0,0-2.52,1.237,1.955,1.955,0,0,0,1.763,3.471,17.171,17.171,0,0,0,2.63-1.016c1.648-.628,3.78-.522,4.842.9a3.8,3.8,0,0,1,.415,3.36,8.769,8.769,0,0,1-1.809,2.973,23.079,23.079,0,0,1-9.838,6.962c-3.822,1.339-7.386,1.713-11.18.332" transform="translate(-109.984 -364.913)" fill="#bdbdbd"/>
        <path id="Path_5193-2" data-name="Path 5193" d="M113.99,411c.254-2.866.383-2.927,1.44-6.578a107.552,107.552,0,0,1,4.228-11.6l1.265-2.981c.415-.979.831-1.948,1.3-2.871a53.707,53.707,0,0,1,2.981-5.142c1.025-1.592,2.054-3.07,3.023-4.44s1.911-2.63,2.811-3.744a42.621,42.621,0,0,1,4.616-4.93c.591-.536,1.062-.923,1.385-1.209l.369-.3a.889.889,0,0,1,.129-.1.85.85,0,0,1-.115.115l-.355.319c-.314.277-.777.692-1.357,1.237a45.089,45.089,0,0,0-4.568,4.966c-.891,1.117-1.814,2.377-2.769,3.753s-1.989,2.853-3.006,4.445a54.337,54.337,0,0,0-2.945,5.142c-.462.923-.868,1.883-1.288,2.862l-1.265,2.981a110.281,110.281,0,0,0-4.237,11.567c-1.066,3.637-1.209,3.693-1.478,6.532" transform="translate(-106.136 -366.093)" fill="#263238"/>
        <path id="Path_5194-2" data-name="Path 5194" d="M148.8,394.743a2.433,2.433,0,0,1-.12-.512c-.065-.332-.143-.812-.225-1.412-.175-1.2-.36-2.853-.554-4.68s-.4-3.48-.6-4.671c-.092-.6-.175-1.076-.235-1.385a2.4,2.4,0,0,1-.069-.522,2.4,2.4,0,0,1,.152.5c.088.328.189.8.3,1.385.231,1.186.462,2.843.66,4.671l.489,4.684.157,1.417a2.4,2.4,0,0,1,.037.522Z" transform="translate(-132.637 -373.876)" fill="#263238"/>
        <path id="Path_5195-2" data-name="Path 5195" d="M129,403.737a3.349,3.349,0,0,1-.614.074c-.4.037-.969.088-1.676.171-1.413.157-3.36.462-5.488.854s-4.043.868-5.419,1.242c-.688.18-1.242.342-1.625.462a3.309,3.309,0,0,1-.6.148,3.308,3.308,0,0,1,.576-.231c.374-.134.923-.319,1.611-.517,1.385-.411,3.281-.891,5.419-1.306a54.45,54.45,0,0,1,5.516-.789c.711-.065,1.288-.092,1.685-.1a3.259,3.259,0,0,1,.614,0Z" transform="translate(-97.41 -385.811)" fill="#263238"/>
        <path id="Path_5196-2" data-name="Path 5196" d="M169.285,424.378a.789.789,0,0,1-.106-.189l-.268-.559c-.231-.485-.54-1.2-.923-2.077-.751-1.768-1.713-4.237-2.733-6.979s-1.962-5.221-2.673-7l-.849-2.1-.225-.572a.8.8,0,0,1-.065-.208.813.813,0,0,1,.106.189l.268.559c.231.485.54,1.2.923,2.077.751,1.768,1.713,4.237,2.737,6.979s1.962,5.221,2.673,7l.849,2.1.225.572A.808.808,0,0,1,169.285,424.378Z" transform="translate(-159.788 -386.331)" fill="#263238"/>
        <path id="Path_5197-2" data-name="Path 5197" d="M137.541,432.86a.821.821,0,0,1-.2.083l-.6.2-2.193.72c-1.846.609-4.4,1.478-7.219,2.442s-5.378,1.81-7.242,2.382c-.923.286-1.689.508-2.216.651l-.6.162a.8.8,0,0,1-.217.042.84.84,0,0,1,.2-.083l.6-.2,2.174-.72c1.846-.609,4.4-1.478,7.219-2.442s5.373-1.81,7.242-2.382c.923-.286,1.689-.508,2.216-.651l.609-.162A.8.8,0,0,1,137.541,432.86Z" transform="translate(-107.554 -401.497)" fill="#263238"/>
      </g>
      <path id="Path_5742" data-name="Path 5742" d="M139.352,0C216.314,0,282,38.975,282,38.975H0S62.39,0,139.352,0Z" transform="translate(0 22.54)" fill="url(#linear-gradient)"/>
    </g>
    <g id="Group_4868" data-name="Group 4868" transform="translate(1005.708 423.12)">
      <g id="Group_4980" data-name="Group 4980" transform="translate(0 21.598) rotate(-7)">
        <g id="Group_4913" data-name="Group 4913" transform="translate(26.265 0)">
          <g id="Group_4882" data-name="Group 4882" transform="translate(89.925 0.02)">
            <g id="Group_4869" data-name="Group 4869" transform="translate(0.02 26.873)">
              <g id="Group_4868-2" data-name="Group 4868" transform="translate(0 0)">
                <path id="Path_5743" data-name="Path 5743" d="M.45,27.481a.431.431,0,0,1-.36-.666c.662-1.011,1.3-2.063,1.882-3.127a.43.43,0,0,1,.753.416c-.6,1.082-1.242,2.153-1.916,3.182A.429.429,0,0,1,.45,27.481ZM4.5,19.916a.431.431,0,0,1-.4-.6c.477-1.114.918-2.261,1.31-3.407a.43.43,0,0,1,.813.28c-.4,1.167-.849,2.334-1.333,3.467a.429.429,0,0,1-.4.262ZM7.18,11.758a.431.431,0,0,1-.419-.529c.206-.879.389-1.774.544-2.661q.025-.15.05-.29a8.049,8.049,0,0,1-1.687.185H5.646a.43.43,0,0,1,0-.86h.019a8.556,8.556,0,0,0,3.378-.776.43.43,0,0,1,.342.789,11.7,11.7,0,0,1-1.122.42c-.032.212-.069.437-.112.681-.158.9-.344,1.813-.554,2.708a.429.429,0,0,1-.418.332ZM1.409,6.377a.43.43,0,0,1-.353-.185A4.457,4.457,0,0,1,.251,4C.243,3.908.24,3.813.24,3.719A3.966,3.966,0,0,1,.508,2.292a.43.43,0,0,1,.8.309A3.109,3.109,0,0,0,1.1,3.72c0,.073,0,.145.008.217A3.594,3.594,0,0,0,1.76,5.7a.429.429,0,0,1-.352.675ZM13.323,5a.43.43,0,0,1-.286-.753A16.651,16.651,0,0,0,15.452,1.6a.43.43,0,0,1,.694.509,17.511,17.511,0,0,1-2.54,2.783A.428.428,0,0,1,13.325,5ZM7.48,3.308a.431.431,0,0,1-.392-.252A4.171,4.171,0,0,0,4.717.842.43.43,0,1,1,4.984.025,5.058,5.058,0,0,1,7.87,2.7a.429.429,0,0,1-.391.608Z" transform="translate(0 0)" fill="url(#linear-gradient-2)"/>
              </g>
            </g>
            <g id="Group_4871" data-name="Group 4871" transform="translate(16.638 9.62)">
              <g id="Group_4870" data-name="Group 4870" transform="translate(0 0)">
                <path id="Path_5744" data-name="Path 5744" d="M32.226,15.183A1.673,1.673,0,0,1,31.072,16.4L11.049,22.29a1.67,1.67,0,0,1-1.231-.113l-8.887-4.5A1.679,1.679,0,0,1,.24,15.332L5.255,6.74a1.667,1.667,0,0,1,.972-.761L26.249.088a1.68,1.68,0,0,1,2.082,1.135l3.872,13.1a1.665,1.665,0,0,1,.023.865Z" fill="url(#linear-gradient-2)"/>
              </g>
            </g>
            <g id="Group_4881" data-name="Group 4881" transform="translate(16.596 0.012)">
              <g id="Group_4873" data-name="Group 4873" transform="translate(0 0)">
                <g id="Group_4872" data-name="Group 4872">
                  <path id="Path_5745" data-name="Path 5745" d="M3.007,13.814.063,25.394a1.64,1.64,0,0,0,1.361,2l11.857,1.521a1.418,1.418,0,0,0,.982-.229L33,15.954a1.524,1.524,0,0,0,.334-2.127L24.418.725a1.526,1.526,0,0,0-2.1-.472L3.581,12.986A1.418,1.418,0,0,0,3.007,13.814Zm3.649,8.563a1.567,1.567,0,1,1-2.179-.417,1.567,1.567,0,0,1,2.179.417Z" fill="url(#linear-gradient-2)"/>
                </g>
              </g>
            </g>
          </g>
          <g id="Group_4912" data-name="Group 4912" transform="translate(0.134 43.926)">
            <g id="Group_4904" data-name="Group 4904" transform="translate(0.033 0)">
              <path id="Path_5758" data-name="Path 5758" d="M135.536,1.26,119.843.091h0l-.064,0h-.032l-.038,0a.935.935,0,0,0-.372.107l-.025.013-.026.017a.93.93,0,0,0-.214.181c-.012.013-.023.026-.034.04l-.015.021c-.013.018-.027.037-.039.056l0,0-14.532,23.3L20.312,1.254a.939.939,0,0,0-1.184.914l.407,48.3a.942.942,0,0,0,.7.9l.009,0,.007,0,46.184,12.4.508.136,11.948,3.207H78.9l5.238,1.406c2.514.675,4.176,1.833,4.942,3.444A7.7,7.7,0,0,1,89.2,77.28a7.155,7.155,0,0,1-8.764,5.048L1.23,61.068a.939.939,0,1,0-.486,1.815L79.955,84.143a9.036,9.036,0,0,0,11.067-6.376,9.492,9.492,0,0,0-.246-6.61c-1.014-2.132-3.085-3.63-6.156-4.455L80.6,65.624l25.065-40.2.007-.011,14.6-23.412L135.4,3.133a.94.94,0,1,0,.137-1.875ZM86.164,20.874l-4.322,9.269L60.079,24.3l2.6-9.73ZM55.95,36.34,53.121,46.913l-16.7-4.483.961-11.074ZM37.459,30.469,38.42,19.4,59,24.92,56.176,35.493Zm19.339,6.1,19.6,5.26L71.7,51.9,53.97,47.14Zm.227-.847,2.828-10.572,21.613,5.8-4.7,10.071Zm4.809-21.378-2.6,9.73L38.5,18.508l.884-10.192ZM21.02,3.389l17.5,4.7-.884,10.192L21.108,13.841Zm.1,11.363,16.442,4.414L36.6,30.239l-15.386-4.13Zm.1,12.267,15.3,4.107L35.559,42.2,21.314,38.376Zm.191,22.72-.088-10.453,14.16,3.8L34.6,53.278ZM35.46,53.509l.884-10.192L52.895,47.76l-2.6,9.73Zm15.681,4.209,2.6-9.731,17.579,4.718L67,61.975Zm27.562,7.4-10.84-2.909,4.322-9.269,12.089,3.245ZM84.759,55.4l-12.2-3.274,4.7-10.071L90.811,45.7ZM91.3,44.92,77.632,41.252l4.7-10.071,15.021,4.032Zm6.538-10.485L82.7,30.374,87.026,21.1l16.379,4.4Z" transform="translate(0.175 0.175)" fill="url(#linear-gradient-2)"/>
              <path id="Path_5759" data-name="Path 5759" d="M82.477,84.8a9.254,9.254,0,0,1-2.393-.318L.874,63.224a1.112,1.112,0,1,1,.574-2.149L80.658,82.335a6.983,6.983,0,0,0,8.552-4.927,7.545,7.545,0,0,0-.116-5.2c-.743-1.563-2.369-2.69-4.831-3.351l-5.234-1.4-.009,0-.012,0L20.37,51.709l-.009,0a1.118,1.118,0,0,1-.827-1.067l-.407-48.3a1.111,1.111,0,0,1,1.4-1.082l84.009,22.549L119,.607l0,0c.014-.022.029-.042.044-.063l0,0,.014-.02.034-.04.007-.008a1.1,1.1,0,0,1,.253-.214l.006,0,.025-.015.023-.012.006,0a1.1,1.1,0,0,1,.441-.127h.01l.035,0h.038c.023,0,.046,0,.069,0h.014l15.69,1.169a1.112,1.112,0,1,1-.162,2.219L120.537,2.36,81.045,65.693l3.792,1.018c3.123.838,5.231,2.368,6.268,4.548a9.653,9.653,0,0,1,.256,6.728A9.218,9.218,0,0,1,82.475,84.8ZM1.16,61.383a.767.767,0,0,0-.2,1.508L80.171,84.152A8.864,8.864,0,0,0,91.029,77.9a9.327,9.327,0,0,0-.235-6.491c-.991-2.084-3.025-3.552-6.045-4.362l-4.243-1.138.123-.2L120.355,2l15.23,1.135a.767.767,0,1,0,.112-1.53L120.009.438h-.116a.758.758,0,0,0-.3.087l-.016.008-.011.006-.016.01a.759.759,0,0,0-.175.147l-.008.009a.3.3,0,0,0-.021.025l0,0-.01.014c-.011.015-.022.03-.032.045l0,.007L104.7,24.211l-.124-.033L20.44,1.6a.767.767,0,0,0-.966.746l.407,48.3a.771.771,0,0,0,.564.734l.014,0,.012,0L84.352,68.529c2.565.688,4.265,1.879,5.054,3.537a7.864,7.864,0,0,1,.138,5.436,7.316,7.316,0,0,1-8.975,5.17L1.359,61.412A.767.767,0,0,0,1.16,61.383ZM78.954,65.49l-11.162-3,4.469-9.587L84.716,56.25ZM68.279,62.267,78.8,65.09l5.38-8.628L72.453,53.316Zm-1.01.086L51.1,58.015l2.692-10.064,17.945,4.817ZM51.525,57.77l15.554,4.175,4.172-8.952-17.214-4.62Zm-.938.105L35.448,53.813l.915-10.541,16.917,4.541ZM35.816,53.554l14.526,3.9,2.514-9.4L36.67,43.711Zm49.193,2.224-12.52-3.36,4.843-10.389,13.921,3.737ZM72.976,52.191l11.876,3.188,5.862-9.4-13.19-3.54ZM34.924,53.672,21.411,50.045,21.32,39.234l14.52,3.9ZM21.754,49.78l12.861,3.452.854-9.843-13.8-3.7Zm50.211,2.5-18.036-4.84,2.917-10.906.167.045,19.8,5.313ZM54.352,47.192l17.422,4.676,4.547-9.754L57.09,36.953Zm-.938.105-.167-.045-16.84-4.52L37.4,31.309l18.933,5.082ZM36.776,42.475l16.394,4.4,2.739-10.239-18.2-4.886Zm54.77,2.818L77.559,41.539,82.4,31.15l15.387,4.13Zm-13.5-3.981,13.342,3.581,5.862-9.4L82.593,31.558Zm-42.162,1.28-14.57-3.911-.1-11.715,15.66,4.2ZM21.657,38.417l13.919,3.737.931-10.724-14.942-4.01ZM77.036,41.4l-.14-.038L56.984,36.016,59.9,25.11l21.979,5.9Zm-19.63-5.626L76.845,40.99l4.547-9.754-21.247-5.7Zm-.938.105-.167-.045L37.444,30.772l.992-11.424,20.951,5.623ZM37.814,30.513l18.411,4.94,2.739-10.239L38.744,19.787Zm60.27,4.294L82.63,30.659l4.47-9.587,16.745,4.494ZM83.117,30.433l14.808,3.975,5.38-8.628-16.015-4.3Zm-46.2.2L21.21,26.413l-.1-11.715L37.918,19.21ZM21.553,26.148l15.06,4.042.931-10.724L21.461,15.15Zm60.555,4.371-.14-.038L60.037,24.6l2.692-10.064,23.847,6.4ZM60.461,24.351,81.916,30.11l4.172-8.952-23.115-6.2Zm-.937.105L38.482,18.809,39.4,8.268l.2.053,22.62,6.071ZM38.851,18.551,59.28,24.033l2.514-9.4L39.707,8.708Zm-.892.118L21.107,14.145,21.015,3.335,38.874,8.128ZM21.45,13.88l16.2,4.348L38.5,8.386l-17.14-4.6Z" transform="translate(0 0)" fill="url(#linear-gradient-2)"/>
            </g>
            <g id="Group_4905" data-name="Group 4905" transform="translate(13.653 70.133)">
              <path id="Path_5760" data-name="Path 5760" d="M6.873.193a5.456,5.456,0,1,0,3.865,6.689A5.449,5.449,0,0,0,6.873.193Zm2.048,6.2A3.579,3.579,0,1,1,6.387,2.011,3.571,3.571,0,0,1,8.92,6.393Z" transform="translate(0.168 0.166)" fill="url(#linear-gradient-2)"/>
              <path id="Path_5761" data-name="Path 5761" d="M5.635,11.262a5.625,5.625,0,1,1,5.437-4.17,5.641,5.641,0,0,1-5.437,4.17ZM5.629.344A5.293,5.293,0,1,0,7,.526,5.272,5.272,0,0,0,5.629.344Zm.01,9.038A3.749,3.749,0,1,1,9.255,6.6l-.167-.045.167.045A3.752,3.752,0,0,1,5.638,9.381ZM5.63,2.226a3.412,3.412,0,1,0,.88.117,3.4,3.4,0,0,0-.88-.117Z" transform="translate(0 0)" fill="url(#linear-gradient-2)"/>
            </g>
            <g id="Group_4906" data-name="Group 4906" transform="translate(60.091 82.577)">
              <path id="Path_5762" data-name="Path 5762" d="M6.873.193a5.457,5.457,0,1,0,3.865,6.689A5.449,5.449,0,0,0,6.873.193Zm2.047,6.2A3.579,3.579,0,1,1,6.387,2.011,3.571,3.571,0,0,1,8.92,6.393Z" transform="translate(0.172 0.171)" fill="url(#linear-gradient-2)"/>
              <path id="Path_5763" data-name="Path 5763" d="M5.639,11.267A5.627,5.627,0,1,1,11.077,7.1a5.643,5.643,0,0,1-5.437,4.17ZM5.633.348A5.3,5.3,0,1,0,7,.53,5.278,5.278,0,0,0,5.633.348Zm.006,9.037A3.747,3.747,0,1,1,9.259,6.608h0A3.749,3.749,0,0,1,5.638,9.385Zm0-7.155A3.4,3.4,0,1,0,8.925,6.518h0A3.412,3.412,0,0,0,5.634,2.23Z" transform="translate(0 0)" fill="url(#linear-gradient-2)"/>
            </g>
            <g id="Group_4907" data-name="Group 4907" transform="translate(63.54 86.026)">
              <path id="Path_5764" data-name="Path 5764" d="M2.534.071A2.012,2.012,0,1,0,3.959,2.537,2.009,2.009,0,0,0,2.534.071Zm.578,2.238a1.135,1.135,0,1,1-.8-1.39,1.133,1.133,0,0,1,.8,1.39Z" transform="translate(0.172 0.173)" fill="url(#linear-gradient-2)"/>
              <path id="Path_5765" data-name="Path 5765" d="M2.186,4.372a2.185,2.185,0,1,1,.562-4.3h0a2.185,2.185,0,0,1-.563,4.3Zm0-4.026A1.845,1.845,0,1,0,2.66.41h0A1.842,1.842,0,0,0,2.182.347Zm0,3.148a1.306,1.306,0,1,1,1.262-.968,1.309,1.309,0,0,1-1.262.968Zm0-2.269a.962.962,0,1,0,.93,1.211h0a.963.963,0,0,0-.929-1.211Z" transform="translate(0 0)" fill="url(#linear-gradient-2)"/>
            </g>
            <g id="Group_4908" data-name="Group 4908" transform="translate(17.1 73.558)">
              <path id="Path_5766" data-name="Path 5766" d="M2.534.071A2.012,2.012,0,1,0,3.959,2.537,2.009,2.009,0,0,0,2.534.071Zm.578,2.238a1.135,1.135,0,1,1-.8-1.39,1.133,1.133,0,0,1,.8,1.39Z" transform="translate(0.172 0.17)" fill="url(#linear-gradient-2)"/>
              <path id="Path_5767" data-name="Path 5767" d="M2.187,4.371A2.183,2.183,0,1,1,4.3,2.753a2.189,2.189,0,0,1-2.11,1.618Zm0-4.026a1.841,1.841,0,1,0,.476.063A1.834,1.834,0,0,0,2.184.345Zm0,3.148A1.3,1.3,0,1,1,3.481,2.279,1.31,1.31,0,0,1,2.186,3.493Zm0-2.269a.963.963,0,1,0,.249.033.96.96,0,0,0-.249-.033Z" transform="translate(0 0)" fill="url(#linear-gradient-2)"/>
            </g>
            <g id="Group_4909" data-name="Group 4909" transform="translate(13.564 26.549)">
              <path id="Path_5768" data-name="Path 5768" d="M.5,20.682a.43.43,0,0,0,.378-.077.441.441,0,0,0,.168-.351L.868.437A.438.438,0,0,0,.43,0,.436.436,0,0,0,0,.443L.177,20.261a.44.44,0,0,0,.322.421Z" transform="translate(0.169 0.173)" fill="url(#linear-gradient-2)"/>
              <path id="Path_5769" data-name="Path 5769" d="M.782,21.043a.6.6,0,0,1-.156-.021h0a.614.614,0,0,1-.448-.587L0,.617A.608.608,0,0,1,.6,0a.61.61,0,0,1,.61.608l.177,19.818a.608.608,0,0,1-.6.617ZM.606.346h0A.265.265,0,0,0,.342.615L.519,20.433a.267.267,0,0,0,.195.255h0a.276.276,0,0,0,.07.009.265.265,0,0,0,.261-.269L.868.611A.265.265,0,0,0,.606.347Z" transform="translate(0 0)" fill="url(#linear-gradient-2)"/>
            </g>
            <g id="Group_4910" data-name="Group 4910" transform="translate(8.374 15.279)">
              <path id="Path_5770" data-name="Path 5770" d="M.425,12.138a.433.433,0,0,0,.38-.077.44.44,0,0,0,.169-.351L.872.436A.436.436,0,1,0,0,.443L.1,11.717A.44.44,0,0,0,.425,12.138Z" transform="translate(0.172 0.173)" fill="url(#linear-gradient-2)"/>
              <path id="Path_5771" data-name="Path 5771" d="M.709,12.5A.61.61,0,0,1,.1,11.891L0,.617A.608.608,0,1,1,1.215.608l.1,11.274a.609.609,0,0,1-.6.617ZM.608.346h0A.262.262,0,0,0,.419.426.267.267,0,0,0,.344.615l.1,11.274a.267.267,0,0,0,.2.255h0a.263.263,0,0,0,.23-.046.267.267,0,0,0,.1-.213L.872.611A.265.265,0,0,0,.608.346Z" transform="translate(0 0)" fill="url(#linear-gradient-2)"/>
            </g>
            <g id="Group_4911" data-name="Group 4911" transform="translate(8.488 29.209)">
              <path id="Path_5772" data-name="Path 5772" d="M.434,0A.437.437,0,0,0,0,.443L.053,6.312a.437.437,0,1,0,.875-.007L.875.436A.439.439,0,0,0,.434,0Z" transform="translate(0.173 0.173)" fill="url(#linear-gradient-2)"/>
              <path id="Path_5773" data-name="Path 5773" d="M.663,7.093a.611.611,0,0,1-.609-.608L0,.617A.609.609,0,1,1,1.219.608l.053,5.869a.61.61,0,0,1-.6.617ZM.607.346h0A.265.265,0,0,0,.344.614L.4,6.483a.267.267,0,0,0,.2.255.276.276,0,0,0,.071.009.265.265,0,0,0,.263-.269L.875.61A.266.266,0,0,0,.8.422.256.256,0,0,0,.607.346Z" transform="translate(0 0)" fill="url(#linear-gradient-2)"/>
            </g>
          </g>
        </g>
        <g id="Group_4974" data-name="Group 4974" transform="translate(0.001 35.477)" opacity="0.22">
          <g id="Group_4973" data-name="Group 4973" transform="translate(0.027 60.374)">
            <path id="Path_5790" data-name="Path 5790" d="M4.7,2.248,6.943,3.476,4.7,4.7,3.476,6.944,2.247,4.7,0,3.47,2.245,2.246,3.47,0Z" transform="translate(4.475 0.003)" fill="#455a64"/>
            <path id="Path_5791" data-name="Path 5791" d="M2.35,1.124l1.122.615-1.121.613L1.738,3.473,1.124,2.35,0,1.736l1.121-.613L1.735,0Z" transform="translate(0.007 9.023)" fill="#455a64"/>
          </g>
          <path id="Path_5792" data-name="Path 5792" d="M5.047,2.413l2.411,1.32L5.049,5.049,3.733,7.457,2.413,5.047,0,3.727,2.411,2.411,3.727,0Z" transform="translate(170.99 0.128)" fill="#455a64"/>
        </g>
        <g id="Group_4979" data-name="Group 4979" transform="translate(27.155 26.16)" opacity="0.22">
          <g id="Group_4976" data-name="Group 4976" transform="translate(13.791 0.01)">
            <path id="Path_5796" data-name="Path 5796" d="M1.679,6.916,1.674.838A.837.837,0,0,0,0,.837L.006,6.915a.837.837,0,0,0,1.673,0Z" transform="translate(0 0)" fill="#455a64"/>
          </g>
          <g id="Group_4977" data-name="Group 4977" transform="translate(0.01 13.791)">
            <path id="Path_5797" data-name="Path 5797" d="M7.752.843A.838.838,0,0,0,6.915.006L.837,0a.837.837,0,0,0,0,1.673l6.078.005A.835.835,0,0,0,7.752.843Z" transform="translate(0 0)" fill="#455a64"/>
          </g>
          <g id="Group_4978" data-name="Group 4978" transform="translate(4.043 4.043)">
            <path id="Path_5798" data-name="Path 5798" d="M5.853,5.017a.835.835,0,0,0-.246-.592L1.429.246A.836.836,0,1,0,.246,1.429L4.425,5.608a.836.836,0,0,0,1.428-.591Z" transform="translate(0 0)" fill="#455a64"/>
          </g>
        </g>
      </g>
      <g id="Group_4982" data-name="Group 4982" transform="translate(144.326 11.038) rotate(-7)">
        <g id="Group_4877" data-name="Group 4877" transform="matrix(0.927, -0.375, 0.375, 0.927, 1.819, 2.378)">
          <g id="Group_4876" data-name="Group 4876">
            <path id="Path_5747" data-name="Path 5747" d="M.593,13.124a.595.595,0,0,1-.544-.831L5.209.359A.594.594,0,1,1,6.3.831L1.139,12.765a.6.6,0,0,1-.546.359Z" fill="#fff"/>
          </g>
        </g>
        <g id="Group_4982-2" data-name="Group 4982" transform="matrix(0.375, 0.927, -0.927, 0.375, 12.168, 1.819)">
          <g id="Group_4876-2" data-name="Group 4876" transform="translate(0)">
            <path id="Path_5747-2" data-name="Path 5747" d="M.593,13.124a.595.595,0,0,1-.544-.831L5.209.359A.594.594,0,1,1,6.3.831L1.139,12.765a.6.6,0,0,1-.546.359Z" fill="#fff"/>
          </g>
        </g>
      </g>
    </g>
    <path id="Path_5801" data-name="Path 5801" d="M292.341,180.061c-3.713,4.278-2.076,7.576-3.657,7.729a.937.937,0,0,1-.227,0c-1.227-.169-.768-3-4.682-6.738-2.474-2.366-7.175-6.613-5.9-8.8,1.091-1.875,4.308,2.229,6.012-.3,1.239-1.84-3.641-2.508-2.856-4.447.871-2.147,3.833.769,4.267-1.334s-1.8-5.043.061-5.536c.029-.008.058-.013.084-.019,1.788-.386,2.408,2.4,2.725,4.246.322,1.875.3,2.464.863,2.318s2.226-2.48,3.409-1.1-2.374,4.627-2.031,7.035,2.884-1.605,3.773.621C294.694,175,294.186,177.937,292.341,180.061Z" transform="translate(711.482 393.545)" fill="#bdbdbd"/>
  </g>
</svg>
