<svg xmlns="http://www.w3.org/2000/svg" width="37" height="24" viewBox="0 0 37 24">
  <g id="flutterwave" transform="translate(-0.084)">
    <rect id="Rectangle_72" data-name="Rectangle 72" width="37" height="24" rx="12" transform="translate(0.084)" fill="none"/>
    <g id="Page-1" transform="translate(9.238 1.835)">
      <g id="Group-32" transform="translate(0 0)">
        <g id="Group-31">
          <path id="Shape" d="M86.343,127.832c2.587-2.137,7.908-9.776-.407-8.43-3.622.554-8.943,4.077-10.015,8.113a32.416,32.416,0,0,0-1.847-3.126c-1-1.385-2.143-.317-1.035,1.108,3.141,4.077,5.321,8.984,5.321,13.931a20.972,20.972,0,0,0-1.109-8.39,4.8,4.8,0,0,0,1.477.237,15.15,15.15,0,0,0,7.207,6.253c2.661,1.069,6.209.436,4.768-3.839A13.711,13.711,0,0,0,86.343,127.832Zm.37-7.44c4.62-.514-.333,5.224-1.958,6.294a8.154,8.154,0,0,0-5.248-1.623c1.33-1.7,4.546-4.354,7.206-4.671Zm-7.244,5.937a6.027,6.027,0,0,1,3.659,1.306,8.371,8.371,0,0,1-3.252.91C78.176,128.545,77.843,126.487,79.468,126.328Zm6.394,8.945a12.589,12.589,0,0,1-5.692-4.156,10.726,10.726,0,0,0,3.511-1.385,7.546,7.546,0,0,0,1.183-.752,10.627,10.627,0,0,1,3.141,4.552c.518,1.94-.886,2.1-2.143,1.742Z" transform="translate(-72.585 -119.244)" fill="#f5a623"/>
        </g>
      </g>
    </g>
  </g>
</svg>
