<svg xmlns="http://www.w3.org/2000/svg" xmlns:xlink="http://www.w3.org/1999/xlink" width="37" height="24" viewBox="0 0 37 24">
  <defs>
    <clipPath id="clip-path">
      <path id="Path_35" data-name="Path 35" d="M24,0h2.691V20.312H24Zm0,0" transform="translate(-24)"/>
    </clipPath>
  </defs>
  <g id="midtrans" transform="translate(0 -0.391)">
    <rect id="Rectangle_72" data-name="Rectangle 72" width="37" height="24" rx="12" transform="translate(0 0.39)" fill="none"/>
    <g id="surface1" transform="translate(9.004 2.304)">
      <path id="Path_32" data-name="Path 32" d="M1.345,24.14A1.344,1.344,0,0,1,0,22.8V13.034a1.346,1.346,0,1,1,2.691,0V22.8A1.344,1.344,0,0,1,1.345,24.14" transform="translate(0 -7.754)" fill="#89c8e9"/>
      <path id="Path_33" data-name="Path 33" d="M49.345,24.156A1.343,1.343,0,0,1,48,22.815V13.059a1.346,1.346,0,1,1,2.691,0v9.756a1.343,1.343,0,0,1-1.346,1.341" transform="translate(-31.884 -7.77)" fill="#0eaedd"/>
      <g id="Group_30" data-name="Group 30" transform="translate(8.058)" clip-path="url(#clip-path)">
        <path id="Path_34" data-name="Path 34" d="M25.345,20.345A1.345,1.345,0,0,1,24,19V1.4a1.346,1.346,0,1,1,2.691,0V19a1.344,1.344,0,0,1-1.345,1.343" transform="translate(-24 -0.032)" fill="#2e80c3"/>
      </g>
    </g>
  </g>
</svg>
