<svg id="mobilenumber" xmlns="http://www.w3.org/2000/svg" width="20" height="20" viewBox="0 0 20 20">
  <rect id="Rectangle_2688" data-name="Rectangle 2688" width="20" height="20" fill="none"/>
  <g id="call" transform="translate(1.25 1.25)">
    <g id="Group_5258" data-name="Group 5258">
      <g id="Group_5257" data-name="Group 5257">
        <path id="Path_5947" data-name="Path 5947" d="M18.282,14.708l-3.592-2.395a1.048,1.048,0,0,0-1.4.228l-1.046,1.345a.447.447,0,0,1-.574.121l-.2-.11a12.047,12.047,0,0,1-3.134-2.462A12.029,12.029,0,0,1,5.87,8.3L5.76,8.1a.448.448,0,0,1,.118-.575L7.223,6.479a1.05,1.05,0,0,0,.228-1.4l-2.4-3.592A1.043,1.043,0,0,0,3.65,1.167l-1.5.9a2.119,2.119,0,0,0-.966,1.254C.641,5.294,1.048,8.7,6.058,13.707c3.986,3.985,6.953,5.057,8.992,5.057a5.24,5.24,0,0,0,1.39-.181,2.117,2.117,0,0,0,1.254-.966l.9-1.5A1.043,1.043,0,0,0,18.282,14.708Zm-.194,1.1-.9,1.5a1.529,1.529,0,0,1-.9.7c-1.819.5-5,.086-9.808-4.725S1.252,5.3,1.752,3.48a1.531,1.531,0,0,1,.7-.9l1.5-.9a.453.453,0,0,1,.61.137l1.3,1.954L6.957,5.406a.455.455,0,0,1-.1.609L5.512,7.061A1.035,1.035,0,0,0,5.237,8.39l.107.194a12.679,12.679,0,0,0,2.567,3.27,12.566,12.566,0,0,0,3.271,2.563l.194.107a1.035,1.035,0,0,0,1.328-.275L13.75,12.9a.455.455,0,0,1,.609-.1l3.591,2.4a.452.452,0,0,1,.138.61Z" transform="translate(-1 -1.018)" fill="#1C9DC7" stroke="#fc6a57" stroke-width="0.25"/>
        <path id="Path_5948" data-name="Path 5948" d="M282.924,69.916a5.033,5.033,0,0,1,5.027,5.028.3.3,0,0,0,.592,0,5.625,5.625,0,0,0-5.619-5.619.3.3,0,1,0,0,.591Z" transform="translate(-272.868 -66.957)" fill="#1C9DC7" stroke="#fc6a57" stroke-width="0.25"/>
        <path id="Path_5949" data-name="Path 5949" d="M282.924,121.114a3.257,3.257,0,0,1,3.253,3.253.3.3,0,1,0,.591,0,3.85,3.85,0,0,0-3.844-3.845.3.3,0,0,0,0,.592Z" transform="translate(-272.869 -116.381)" fill="#1C9DC7" stroke="#fc6a57" stroke-width="0.25"/>
        <path id="Path_5950" data-name="Path 5950" d="M282.924,172.312a1.48,1.48,0,0,1,1.479,1.477.3.3,0,1,0,.591,0,2.072,2.072,0,0,0-2.07-2.07.3.3,0,0,0,0,.592Z" transform="translate(-272.868 -165.804)" fill="#1C9DC7" stroke="#fc6a57" stroke-width="0.25"/>
      </g>
    </g>
  </g>
</svg>
