<svg xmlns="http://www.w3.org/2000/svg" width="37" height="24" viewBox="0 0 37 24">
  <g id="paypal" transform="translate(0.45 -0.391)">
    <rect id="Rectangle_72" data-name="Rectangle 72" width="37" height="24" rx="12" transform="translate(-0.45 0.39)" fill="none"/>
    <g id="PayPal_2_" data-name="PayPal (2)" transform="translate(9.197 2.324)">
      <path id="Path_47" data-name="Path 47" d="M5.3,20.1l.339-2.234H1.1L3.673,1.2q.1-.2.2-.2h6.366c2.1,0,3.589.474,4.333,1.354a2.645,2.645,0,0,1,.677,1.287,3.837,3.837,0,0,1,0,1.761v.542l.339.2a1.529,1.529,0,0,1,.745.541,2.848,2.848,0,0,1,.611,1.287,6.124,6.124,0,0,1-.068,1.9,5.55,5.55,0,0,1-.813,2.167,4.719,4.719,0,0,1-1.219,1.354,4.3,4.3,0,0,1-1.693.745,9.307,9.307,0,0,1-2.1.271h-.475a1.618,1.618,0,0,0-.948.339,1.157,1.157,0,0,0-.474.88l-.068.2-.609,4v.135c0,.068,0,.068-.068.068H8.346C8.346,20.1,5.3,20.1,5.3,20.1Z" transform="translate(-0.344 -0.324)" fill="#253b80"/>
      <path id="Path_48" data-name="Path 48" d="M17.546,7.7v.338c-.811,4.325-3.716,5.743-7.365,5.743H8.29a.879.879,0,0,0-.879.743l-.947,6.014-.27,1.688c-.068.27.135.473.406.54H9.98a.8.8,0,0,0,.811-.676v-.134l.608-3.919.068-.2a.8.8,0,0,1,.811-.676h.473c3.176,0,5.676-1.285,6.419-5.068a4.146,4.146,0,0,0-.676-3.784,3.317,3.317,0,0,0-.947-.608Z" transform="translate(-1.957 -2.456)" fill="#179bd7"/>
      <path id="Path_49" data-name="Path 49" d="M17.325,7.037a1.8,1.8,0,0,0-.811-.2A13.122,13.122,0,0,0,14.892,6.7h-5a.8.8,0,0,0-.811.676L8,14.065v.2a.87.87,0,0,1,.879-.743H10.77c3.649,0,6.487-1.486,7.365-5.743V7.375a2.824,2.824,0,0,0-.675-.27A.209.209,0,0,0,17.325,7.037Z" transform="translate(-2.547 -2.157)" fill="#222d65"/>
      <path id="Path_50" data-name="Path 50" d="M6.5,5.215a.8.8,0,0,1,.813-.677h5.012a11.236,11.236,0,0,1,1.625.136,5.642,5.642,0,0,1,1.016.271,7.026,7.026,0,0,1,.677.271,4.008,4.008,0,0,0-.881-3.656C13.811.474,12.118,0,9.884,0H3.517a.937.937,0,0,0-.881.745L0,17.54a.5.5,0,0,0,.474.609h4l.948-6.231Z" transform="translate(0.017)" fill="#253b80"/>
    </g>
  </g>
</svg>
