<svg xmlns="http://www.w3.org/2000/svg" width="37" height="24" viewBox="0 0 37 24">
  <g id="paystack" transform="translate(0.069 -0.391)">
    <rect id="Rectangle_72" data-name="Rectangle 72" width="37" height="24" rx="12" transform="translate(-0.069 0.39)" fill="none"/>
    <g id="Group_50" data-name="Group 50" transform="translate(8.186 2.303)">
      <path id="Path_17771" data-name="Path 17771" d="M18.511,15.5H1.083A1.093,1.093,0,0,0,0,16.583v1.942a1.083,1.083,0,0,0,1.083,1.083H18.511a1.106,1.106,0,0,0,1.1-1.083V16.6a1.1,1.1,0,0,0-1.1-1.1Zm0,10.811H1.083A1.083,1.083,0,0,0,0,27.394v1.942A1.083,1.083,0,0,0,1.083,30.42H18.511a1.1,1.1,0,0,0,1.1-1.083V27.394a1.087,1.087,0,0,0-1.1-1.083ZM10.895,31.7H1.083A1.083,1.083,0,0,0,0,32.786v1.942a1.083,1.083,0,0,0,1.083,1.083h9.8a1.083,1.083,0,0,0,1.083-1.083V32.786a1.063,1.063,0,0,0-1.07-1.083Zm8.713-10.8H1.083A1.083,1.083,0,0,0,0,21.989v1.942a1.083,1.083,0,0,0,1.083,1.083H19.594a1.083,1.083,0,0,0,1.083-1.083V21.989a1.072,1.072,0,0,0-1.07-1.083Z" transform="translate(0 -15.5)" fill="#00c3f7"/>
    </g>
  </g>
</svg>
