<svg xmlns="http://www.w3.org/2000/svg" width="36" height="24" viewBox="0 0 36 24">
  <g id="paytm" transform="translate(-0.296 -0.391)">
    <rect id="Rectangle_72" data-name="Rectangle 72" width="36" height="24" rx="12" transform="translate(0.296 0.39)" fill="none"/>
    <g id="layer1" transform="translate(0.76 6.891)">
      <g id="g52" transform="translate(25.734 1.69)">
        <path id="path54" d="M4.952.825A2.353,2.353,0,0,0,2.733-.75H2.712a2.343,2.343,0,0,0-1.7.723A2.345,2.345,0,0,0-.68-.75H-.7a2.338,2.338,0,0,0-1.533.57V-.362a.346.346,0,0,0-.345-.32H-4.154a.348.348,0,0,0-.245.1.348.348,0,0,0-.1.246V8.211a.348.348,0,0,0,.1.247.348.348,0,0,0,.246.1H-2.58a.347.347,0,0,0,.343-.3V2.125a.551.551,0,0,1,0-.06.573.573,0,0,1,.542-.527H-1.4a.612.612,0,0,1,.332.129.579.579,0,0,1,.212.458l.006,6.1A.349.349,0,0,0-.5,8.578H1.07a.348.348,0,0,0,.346-.332V2.117a.577.577,0,0,1,.256-.492.64.64,0,0,1,.289-.1h.29a.575.575,0,0,1,.545.589l.007,6.1a.348.348,0,0,0,.348.349H4.725a.348.348,0,0,0,.348-.349V1.656A2.19,2.19,0,0,0,4.953.825" transform="translate(4.5 0.75)" fill="#54c1f0"/>
      </g>
      <g id="g56" transform="translate(20.112 0)">
        <path id="path58" d="M2.314.931h-.9V-.527h0v0A.313.313,0,0,0,1.3-.778a.313.313,0,0,0-.264-.064C.039-.568.239.814-1.582.931h-.176A.364.364,0,0,0-1.834.94h0a.347.347,0,0,0-.274.34V2.853a.349.349,0,0,0,.349.348h.95l0,6.672a.344.344,0,0,0,.344.343H1.089a.343.343,0,0,0,.343-.345V3.2h.882a.348.348,0,0,0,.349-.347V1.28A.348.348,0,0,0,2.315.932" transform="translate(2.108 0.849)" fill="#54c1f0"/>
      </g>
      <g id="g60" transform="translate(13.278 1.78)">
        <path id="path62" d="M2.919,0H1.346A.348.348,0,0,0,1,.348V3.6a.368.368,0,0,1-.369.363H-.029A.368.368,0,0,1-.29,3.857.368.368,0,0,1-.4,3.6L-.4.348A.348.348,0,0,0-.752,0H-2.325a.348.348,0,0,0-.348.348V3.914A2.233,2.233,0,0,0-2.02,5.582a2.233,2.233,0,0,0,1.668.652s1.017,0,1.049.006A.366.366,0,0,1,.7,6.967l-.027.005-2.3.007a.348.348,0,0,0-.246.1.348.348,0,0,0-.1.247V8.9a.347.347,0,0,0,.1.246.347.347,0,0,0,.246.1H.947A2.232,2.232,0,0,0,3.268,6.93V.348A.348.348,0,0,0,2.919,0" transform="translate(2.675 0)" fill="#233266"/>
      </g>
      <g id="g64" transform="translate(0 1.779)">
        <path id="path66" d="M1.906,1.506v.971a.369.369,0,0,1-.369.369h-1V.9h1a.368.368,0,0,1,.369.369Zm.138-2.883H-1.4a.341.341,0,0,0-.341.341v8.55a.339.339,0,0,0,.318.348h1.6a.348.348,0,0,0,.348-.348L.539,5.122h1.5A2.043,2.043,0,0,0,4.182,2.984V.765A2.045,2.045,0,0,0,2.043-1.377" transform="translate(1.737 1.379)" fill="#233266"/>
      </g>
      <g id="g68" transform="translate(6.472 1.789)">
        <path id="path70" d="M1.936,3.437v.246a.353.353,0,0,1-.371.346H.91a.36.36,0,0,1-.371-.346V2.336a.358.358,0,0,1,.37-.345h.655a.359.359,0,0,1,.371.346Zm-.25-6.569H-.5A.339.339,0,0,0-.847-2.8V-1.33a.359.359,0,0,0,.37.346H1.6a.362.362,0,0,1,.313.333v.2a.348.348,0,0,1-.3.323H.582A2.184,2.184,0,0,0-1.763,2.062v1.83a2.062,2.062,0,0,0,2.2,2.174H3.288A.9.9,0,0,0,4.216,5.2V-.77c0-1.448-.747-2.362-2.53-2.362" transform="translate(1.763 3.132)" fill="#233266"/>
      </g>
    </g>
  </g>
</svg>
