<svg xmlns="http://www.w3.org/2000/svg" width="37" height="24" viewBox="0 0 37 24">
  <g id="payu" transform="translate(0.34 -0.391)">
    <rect id="Rectangle_72" data-name="Rectangle 72" width="37" height="24" rx="12" transform="translate(-0.34 0.39)" fill="none"/>
    <g id="logo-white" transform="translate(1.874 4.335)">
      <path id="Path_51" data-name="Path 51" d="M72.792,3.4h-1.43a.284.284,0,0,1-.282-.285V1.661a.283.283,0,0,1,.284-.284h1.429a.284.284,0,0,1,.283.286V3.122a.283.283,0,0,1-.283.283M70.886,1.377h-.971a.192.192,0,0,1-.191-.193V.193A.192.192,0,0,1,69.916,0h.971a.192.192,0,0,1,.191.193v.991a.192.192,0,0,1-.192.193" transform="translate(-40.758)" fill="#3aae97" fill-rule="evenodd"/>
      <g id="Group_32" data-name="Group 32" transform="translate(0 4.053)">
        <path id="Path_52" data-name="Path 52" d="M28.962,1.134V6.072A3.687,3.687,0,0,1,28.44,8.08c-.663,1.05-1.948,1.61-3.776,1.61h-.013c-1.827,0-3.112-.56-3.776-1.61a3.687,3.687,0,0,1-.521-2.008V1.134c0-.8.323-.941,1.193-.941h.274c.869,0,1.192.144,1.192.942V6.072a1.4,1.4,0,0,0,.187.769c.237.368.705.536,1.456.536s1.22-.169,1.456-.536a1.4,1.4,0,0,0,.187-.769V1.134c0-.8.323-.941,1.192-.941h.274c.869,0,1.192.144,1.192.942Zm-9.5,1.9L17.847,9.547c-.473,1.909-1.283,2.728-2.793,2.828q-.055,0-.111.005c-.326,0-.428-.181-.489-.473l-.028-.126a.491.491,0,0,1,.032-.386c.074-.1.208-.129.413-.148,1.012-.1,1.354-.576,1.692-1.643A1.767,1.767,0,0,1,16,9.687c-1.112,0-1.409-.781-1.66-1.723L13.011,3.039a.536.536,0,0,1,.012-.451.517.517,0,0,1,.425-.128h.112a.59.59,0,0,1,.69.533l1.321,4.881c.17.609.342.712.771.712.35,0,.554-.11.7-.71L18.207,3a.574.574,0,0,1,.677-.535h.126a.525.525,0,0,1,.425.128.541.541,0,0,1,.028.448Zm-8.155,3.3H9.754c-1.25,0-1.736.32-1.736,1.141,0,.749.485,1.113,1.484,1.113,1.512,0,1.807-.465,1.807-1.269ZM9.5,2.251c2.045,0,3.039.756,3.039,2.312v2.8c0,1.609-.932,2.326-3.025,2.326-1.761,0-2.73-.786-2.73-2.213,0-1.471.939-2.156,2.955-2.156h1.568V4.563c0-.851-.507-1.2-1.751-1.2a7.467,7.467,0,0,0-1.523.153.9.9,0,0,1-.215.031.3.3,0,0,1-.273-.133.617.617,0,0,1-.072-.339V2.966c0-.4.145-.493.492-.569A7.4,7.4,0,0,1,9.5,2.253ZM5.549,3.2C5.549,4.367,5.252,5,3.685,5H1.274V1.978c0-.419.154-.575.571-.575H3.686C4.865,1.4,5.55,1.7,5.55,3.2ZM3.686.19H1.607C.5.19,0,.69,0,1.809V9c0,.432.138.571.567.571h.14c.428,0,.567-.139.567-.571V6.2H3.686c2.142,0,3.137-.955,3.137-3S5.826.19,3.686.19Z" transform="translate(0 -0.19)" fill="#3aae97" fill-rule="evenodd" opacity="0.963"/>
      </g>
      <path id="Path_53" data-name="Path 53" d="M68.825,10.923H66.9a.381.381,0,0,1-.38-.383V8.577a.381.381,0,0,1,.38-.383h1.925a.381.381,0,0,1,.38.383V10.54a.381.381,0,0,1-.38.382" transform="translate(-38.886 -4.791)" fill="#3aae97" fill-rule="evenodd" opacity="0.921"/>
    </g>
  </g>
</svg>
