<svg xmlns="http://www.w3.org/2000/svg" xmlns:xlink="http://www.w3.org/1999/xlink" width="162" height="162" viewBox="0 0 162 162">
  <defs>
    <linearGradient id="linear-gradient" x2="1" y2="1" gradientUnits="objectBoundingBox">
      <stop offset="0" stop-color="#ffbd69"/>
      <stop offset="1" stop-color="#ff6363"/>
    </linearGradient>
  </defs>
  <g id="placeholder" transform="translate(18639 11972)">
    <rect id="placeholder-2" data-name="placeholder" width="162" height="162" transform="translate(-18639 -11972)" fill="none"/>
    <g id="Group_5447" data-name="Group 5447" transform="translate(-18610.094 -11929.587)" opacity="0.55">
      <g id="Group_5041" data-name="Group 5041" transform="translate(0 0)">
        <path id="Path_5826" data-name="Path 5826" d="M357.394,486.749a9.737,9.737,0,0,1-8.453-4.937L321.3,432.725a5.611,5.611,0,0,0-4.287-2.822l-13.318-1.42a1.948,1.948,0,0,1-1.729-2.143l.02-.194a1.947,1.947,0,0,1,2.143-1.73l13.317,1.42a9.709,9.709,0,0,1,7.418,4.882L352.5,479.805a5.621,5.621,0,0,0,5.29,2.839l35.141-2.571a1.947,1.947,0,0,1,2.084,1.8l.014.194a1.948,1.948,0,0,1-1.8,2.084l-35.141,2.572Q357.742,486.748,357.394,486.749Z" transform="translate(-301.956 -424.405)" fill="url(#linear-gradient)"/>
      </g>
      <path id="Path_5827" data-name="Path 5827" d="M461.221,493.044c-1.207.384-2.132,1.472-3.5,1.431-.01-.465.271-.634.557-.8-.286-.69.44-.828.8-1.115.424-1.166,1.416-1.764,1.989-2.786.194.036.174-.143.4-.076,1.641-1.646,3.645-2.935,5.414-4.458.619.184.9-.624,1.591-.639A20.629,20.629,0,0,1,461.221,493.044Z" transform="translate(-378.084 -453.828)" fill="url(#linear-gradient)"/>
      <path id="Path_5828" data-name="Path 5828" d="M436.05,453H375.44a2.1,2.1,0,0,0-1.861,3.067l16.913,32.368a4.338,4.338,0,0,0,3.962,2.326l33.365-.858a5.249,5.249,0,0,0,4.826-3.527l8.906-25.641a5.826,5.826,0,0,0-5.5-7.735Zm-4.888,25.63c-1.462,1.774-2.863,3.61-5.01,4.7a2.3,2.3,0,0,1-1.355,1.191c.128.409-.792.276-.8.8-.67.174-1.115.1-1.35.716-1.161.066-1.656.629-2.71.317-.076.189-.343.189-.475.322-.24-.133-.685-.061-.8-.322-.409.2-1.483.184-1.591-.394-.568.24-.808-.379-1.355-.4-1.038-1.115-2.147-1.764-2.546-3.585a2.576,2.576,0,0,1-.639-1.513c-.854-1.023-2.393-.588-3.978-.716-.941-.071-2.152-.783-3.129-.721l-.118-.005.2-.112c2.352-.025,4.519.3,6.708-.036a13.519,13.519,0,0,1,.557-2.469,4.421,4.421,0,0,1,.317-1.749c.148-.235.465-.328.639-.557.486-.639.772-1.4,1.273-2.07.787-1.058,1.7-1.979,2.546-3.027a58.19,58.19,0,0,1,5.256-3.737c.409-.22.9-.286,1.191-.716.838-.128,1.293-.649,2.07-.557,1.068.123,1.8,1.288,2.7,1.591.3.056.343-.138.639-.076,1.319.736,1.534,2.255.874,3.819-.169.4-.593.823-.874,1.35a17.229,17.229,0,0,1-1.431,2.628c-.154.189-.414.3-.557.48a13.277,13.277,0,0,1-1.83,1.907c-2.469,1.012-3.921,3.032-6.447,3.983a14.553,14.553,0,0,1-1.912,1.109c-.6-.164-.767.312-1.114.164-1.14,2.536,3.9,2.444,5.015,2.546,1.161-.3,2-.915,3.181-1.2a60.851,60.851,0,0,0,9.4-6.365A14.9,14.9,0,0,1,431.163,478.63Z" transform="translate(-336.849 -438.38)" fill="url(#linear-gradient)"/>
      <ellipse id="Ellipse_475" data-name="Ellipse 475" cx="4.921" cy="5.56" rx="4.921" ry="5.56" transform="translate(52.873 66.896)" fill="url(#linear-gradient)"/>
      <ellipse id="Ellipse_476" data-name="Ellipse 476" cx="5.56" cy="4.633" rx="5.56" ry="4.633" transform="matrix(0.099, -0.995, 0.995, 0.099, 81.36, 74.335)" fill="url(#linear-gradient)"/>
    </g>
  </g>
</svg>
