<svg xmlns="http://www.w3.org/2000/svg" width="22" height="22" viewBox="0 0 22 22">
  <g id="pro_myorder" transform="translate(0.31 -0.029)">
    <g id="Group_5427" data-name="Group 5427" transform="translate(0 0)">
      <rect id="Rectangle_2666" data-name="Rectangle 2666" width="22" height="22" rx="3" transform="translate(-0.31 0.03)" fill="#ecf0f8"/>
      <g id="Group_5199" data-name="Group 5199" transform="translate(4.781 3.209)">
        <path id="Path_5904" data-name="Path 5904" d="M327.417,123.7a3.791,3.791,0,1,0,3.792,3.791,3.791,3.791,0,0,0-3.792-3.791Zm-.186,3.12.855.441a1.292,1.292,0,0,1,.691,1.376,1.258,1.258,0,0,1-.741.967v.114a.527.527,0,0,1-1.053,0v-.08a1.557,1.557,0,0,1-.939-.857.527.527,0,0,1,.966-.42.508.508,0,0,0,.509.3.223.223,0,0,0,.218-.194.252.252,0,0,0-.133-.273l-.855-.441a1.3,1.3,0,0,1-.684-1.4,1.262,1.262,0,0,1,.919-1.008v-.078a.527.527,0,0,1,1.053,0v.195a1.543,1.543,0,0,1,.752.774.527.527,0,1,1-.966.42.507.507,0,0,0-.509-.3.226.226,0,0,0-.213.194.243.243,0,0,0,.131.274Z" transform="translate(-318.584 -115.257)" fill="#1C9DC7"/>
        <path id="Path_5905" data-name="Path 5905" d="M321.284,103.575l-.933.5a.426.426,0,0,1-.4,0l-1.354-.731a.425.425,0,0,0-.4,0l-1.352.731a.425.425,0,0,1-.4,0l-1.351-.73a.423.423,0,0,0-.4,0l-1.351.73a.425.425,0,0,1-.4,0l-.927-.5a.421.421,0,0,0-.624.366V117.3a.421.421,0,0,0,.622.366l.933-.5a.424.424,0,0,1,.4,0l1.354.731a.425.425,0,0,0,.4,0l.794-.429a4.721,4.721,0,0,1-.4-1.91,4.839,4.839,0,0,1,6.425-4.527v-7.089a.421.421,0,0,0-.622-.366ZM314.114,113.7h-.633a.521.521,0,1,1,0-1.042h.632a.521.521,0,1,1,0,1.042Zm1.233-2.084h-1.866a.521.521,0,1,1,0-1.042h1.866a.521.521,0,1,1,0,1.042Zm4.351-2.085h-6.217a.521.521,0,1,1,0-1.042H319.7a.521.521,0,1,1,0,1.042Zm0-2.085h-6.217a.521.521,0,1,1,0-1.042H319.7a.521.521,0,0,1,0,1.042Z" transform="translate(-311.375 -103.296)" fill="#1C9DC7"/>
      </g>
    </g>
  </g>
</svg>
