<svg xmlns="http://www.w3.org/2000/svg" width="22" height="22" viewBox="0 0 22 22">
  <g id="pro_language" transform="translate(-0.259 -0.031)">
    <rect id="Rectangle_2666" data-name="Rectangle 2666" width="22" height="22" rx="3" transform="translate(0.259 0.03)" fill="#ecf0f8"/>
    <g id="language" transform="translate(3.773 3.401)">
      <g id="Group_5433" data-name="Group 5433" transform="translate(3.577 4.074)">
        <g id="Group_5432" data-name="Group 5432">
          <path id="Path_6319" data-name="Path 6319" d="M120.841,137h-.191l-.357,1.784h.9Z" transform="translate(-120.293 -137)" fill="#1C9DC7"/>
        </g>
      </g>
      <g id="Group_5435" data-name="Group 5435" transform="translate(11.341 7.642)">
        <g id="Group_5434" data-name="Group 5434">
          <path id="Path_6320" data-name="Path 6320" d="M381.374,257a4.663,4.663,0,0,0,.732,1.292,4.709,4.709,0,0,0,.762-1.292Z" transform="translate(-381.374 -257)" fill="#1C9DC7"/>
        </g>
      </g>
      <g id="Group_5437" data-name="Group 5437" transform="translate(7.216 2.706)">
        <g id="Group_5436" data-name="Group 5436" transform="translate(0 0)">
          <path id="Path_6321" data-name="Path 6321" d="M249.334,91h-5.539l1.155,9.268a1.384,1.384,0,0,1-.331,1.015l-1.956,2.235h6.671a1.34,1.34,0,0,0,1.338-1.338V92.368A1.365,1.365,0,0,0,249.334,91Zm0,4.936h-.119a5.66,5.66,0,0,1-1.075,1.954c.328.3.678.544,1.026.821a.446.446,0,0,1-.558.7c-.378-.3-.734-.549-1.089-.875-.355.326-.681.576-1.059.875a.446.446,0,1,1-.557-.7c.348-.275.669-.521,1-.821a5.63,5.63,0,0,1-1.045-1.954h-.119a.446.446,0,1,1,0-.892h1.338V94.6a.446.446,0,0,1,.892,0v.445h1.367a.446.446,0,1,1,0,.892Z" transform="translate(-242.663 -91)" fill="#1C9DC7"/>
        </g>
      </g>
      <g id="Group_5439" data-name="Group 5439" transform="translate(0)">
        <g id="Group_5438" data-name="Group 5438">
          <path id="Path_6322" data-name="Path 6322" d="M7.261,1.172A1.34,1.34,0,0,0,5.933,0h-4.6A1.34,1.34,0,0,0,0,1.338V11.21a1.34,1.34,0,0,0,1.338,1.338H8.372c.13-.149.239-.242.244-.436C8.618,12.064,7.267,1.22,7.261,1.172ZM5.47,8.526a.446.446,0,0,1-.525-.35L4.66,6.751H3.4L3.114,8.177A.446.446,0,0,1,2.239,8l.892-4.46a.446.446,0,0,1,.437-.358H4.49a.446.446,0,0,1,.437.358L5.82,8A.446.446,0,0,1,5.47,8.526Z" transform="translate(0)" fill="#1C9DC7"/>
        </g>
      </g>
      <g id="Group_5441" data-name="Group 5441" transform="translate(5.212 13.44)">
        <g id="Group_5440" data-name="Group 5440">
          <path id="Path_6323" data-name="Path 6323" d="M175.261,452l.078.612a1.348,1.348,0,0,0,.771,1.037l1.5-1.649Z" transform="translate(-175.261 -452)" fill="#1C9DC7"/>
        </g>
      </g>
    </g>
  </g>
</svg>
