<svg xmlns="http://www.w3.org/2000/svg" width="22" height="22" viewBox="0 0 22 22">
  <g id="pro_logout" transform="translate(-0.081 -0.031)">
    <rect id="Rectangle_2666" data-name="Rectangle 2666" width="22" height="22" rx="3" transform="translate(0.081 0.03)" fill="#ecf0f8"/>
    <g id="logout" transform="translate(2.722 2.904)">
      <path id="Path_5932" data-name="Path 5932" d="M10.43,8.887a.689.689,0,0,0-.7.683V12.3a.69.69,0,0,1-.7.683H6.953V2.735a1.38,1.38,0,0,0-.947-1.3L5.8,1.368H9.04a.69.69,0,0,1,.7.684V4.1a.7.7,0,1,0,1.391,0V2.051A2.071,2.071,0,0,0,9.039,0H1.564A.554.554,0,0,0,1.49.015C1.457.013,1.426,0,1.391,0A1.38,1.38,0,0,0,0,1.368v12.3a1.38,1.38,0,0,0,.947,1.3l4.185,1.371a1.463,1.463,0,0,0,.431.063,1.38,1.38,0,0,0,1.391-1.367v-.683H9.039A2.071,2.071,0,0,0,11.125,12.3V9.57a.689.689,0,0,0-.7-.683Zm0,0" transform="translate(0 0)" fill="#1C9DC7"/>
      <path id="Path_5933" data-name="Path 5933" d="M284.777,109.651,282,106.87a.7.7,0,0,0-1.187.492v2.086h-2.781a.7.7,0,1,0,0,1.391h2.781v2.086a.7.7,0,0,0,1.187.492l2.781-2.781a.695.695,0,0,0,0-.985Zm0,0" transform="translate(-268.575 -103.289)" fill="#1C9DC7"/>
    </g>
  </g>
</svg>
