<svg xmlns="http://www.w3.org/2000/svg" width="22" height="22" viewBox="0 0 22 22">
  <g id="pro_trackorder" transform="translate(-0.421 -0.031)">
    <rect id="Rectangle_2666" data-name="Rectangle 2666" width="22" height="22" rx="3" transform="translate(0.421 0.03)" fill="#ecf0f8"/>
    <g id="Group_5212" data-name="Group 5212" transform="translate(3.907 3.044)">
      <g id="Group_5211" data-name="Group 5211" transform="translate(0 0)">
        <path id="Path_5918" data-name="Path 5918" d="M391.856,251.266l-6.35,3.81a.216.216,0,0,0-.1.185v7.1a.216.216,0,0,0,.324.187l6.35-3.665a.217.217,0,0,0,.108-.187v-7.24a.216.216,0,0,0-.328-.185Zm-13.989,0a.216.216,0,0,0-.327.185v7.239a.217.217,0,0,0,.108.187l6.35,3.665a.216.216,0,0,0,.324-.187V255.26a.215.215,0,0,0-.1-.185Zm3.876,6.573-.321-.172v1.084c0,.145-.118.2-.263.122l-.821-.441a.52.52,0,0,1-.264-.4v-1.085l-.321-.172c-.226-.121-.347-.451-.2-.543l1-.613c.1-.065.293.036.4.213l1,1.681C382.091,257.759,381.969,257.96,381.743,257.839Z" transform="translate(-377.54 -246.167)" fill="#1C9DC7" stroke="rgba(0,0,0,0)" stroke-width="1"/>
        <path id="Path_5919" data-name="Path 5919" d="M388.239,240.9l-2.376-1.372a.216.216,0,0,0-.216,0l-6.428,3.711a.216.216,0,0,0,0,.372l2.453,1.472a.215.215,0,0,0,.222,0l6.35-3.811a.216.216,0,0,0,0-.372Zm4.288,2.347-1.082-2.358a.216.216,0,0,0-.307-.1l-6.428,3.857a.215.215,0,0,0-.087.271l1.034,2.388a.215.215,0,0,0,.309.1l6.476-3.887A.216.216,0,0,0,392.527,243.247Z" transform="translate(-378.433 -239.499)" fill="#1C9DC7" stroke="rgba(0,0,0,0)" stroke-width="1"/>
      </g>
    </g>
  </g>
</svg>
