<svg xmlns="http://www.w3.org/2000/svg" width="22" height="22" viewBox="0 0 22 22">
  <g id="pro_faq" transform="translate(-0.041 -0.031)">
    <rect id="Rectangle_2666" data-name="Rectangle 2666" width="22" height="22" rx="3" transform="translate(0.041 0.03)" fill="#ecf0f8"/>
    <g id="chat" transform="translate(2.814 3.796)">
      <path id="Path_6277" data-name="Path 6277" d="M237.237,189.773l0-.006-.652-1.98v-4.848a1.444,1.444,0,0,0-1.442-1.442h-4.209v2.358a2.406,2.406,0,0,1-2.4,2.4h-.341v2.319a1.444,1.444,0,0,0,1.442,1.442h4.892l1.259.838a.961.961,0,0,0,1.456-1.083Zm-3.272-1.707a.481.481,0,0,1-.619-.28l-.209-.555h-1.463l-.212.556a.481.481,0,0,1-.9-.342l1.324-3.475,0-.011a.561.561,0,0,1,1.037,0l.005.013,1.311,3.475a.48.48,0,0,1-.28.618Z" transform="translate(-220.875 -176.742)" fill="#1C9DC7"/>
      <path id="Path_6278" data-name="Path 6278" d="M348.384,301.232h.734l-.365-.968Z" transform="translate(-337.22 -291.704)" fill="#1C9DC7"/>
      <path id="Path_6279" data-name="Path 6279" d="M7.65,33.126H2.139A1.444,1.444,0,0,0,.7,34.568v4.881l-.652,1.98,0,.006a.95.95,0,0,0,.343,1.059.95.95,0,0,0,1.111.024l1.259-.838H7.65a1.444,1.444,0,0,0,1.442-1.442V34.568A1.443,1.443,0,0,0,7.65,33.126ZM6.9,39.538a.481.481,0,0,1-.68,0l-.21-.21a2.245,2.245,0,1,1,.674-.686l.216.216A.481.481,0,0,1,6.9,39.538Z" transform="translate(0.003 -33.126)" fill="#1C9DC7"/>
      <path id="Path_6280" data-name="Path 6280" d="M110.727,128.156a1.281,1.281,0,1,0,.518,2.451l-.21-.21a.481.481,0,0,1,.68-.68l.2.2a1.28,1.28,0,0,0-1.187-1.76Z" transform="translate(-105.939 -125.112)" fill="#1C9DC7"/>
    </g>
  </g>
</svg>
