<svg xmlns="http://www.w3.org/2000/svg" width="22" height="22" viewBox="0 0 22 22">
  <g id="pro_rateus" transform="translate(-0.34 -0.031)">
    <rect id="Rectangle_2666" data-name="Rectangle 2666" width="22" height="22" rx="3" transform="translate(0.34 0.03)" fill="#ecf0f8"/>
    <path id="rating" d="M2.662,10.462a.642.642,0,0,0,.89-.175,5.585,5.585,0,0,1,9.271-.011.642.642,0,0,0,1.065-.717,6.853,6.853,0,0,0-3.377-2.63,3.628,3.628,0,1,0-4.6-.014A6.851,6.851,0,0,0,2.485,9.571.642.642,0,0,0,2.662,10.462ZM8.22,1.774A2.344,2.344,0,1,1,5.876,4.118,2.344,2.344,0,0,1,8.22,1.774ZM10.78,11.858l-.957.691A.4.4,0,0,0,9.676,13l.385,1.117a.405.405,0,0,1,.02.145.423.423,0,0,1-.666.306l-.957-.691a.409.409,0,0,0-.478,0l-.957.691a.423.423,0,0,1-.666-.306.412.412,0,0,1,.021-.145L6.765,13a.4.4,0,0,0-.148-.451l-.957-.69a.433.433,0,0,1,.239-.775H7.082a.37.37,0,0,0,.386-.233l.366-1.125a.407.407,0,0,1,.773,0l.366,1.125a.37.37,0,0,0,.386.233h1.183a.433.433,0,0,1,.238.774Zm5.49,2.247-.957.69a.4.4,0,0,0-.148.451l.386,1.118a.405.405,0,0,1,.02.145.423.423,0,0,1-.666.306l-.957-.691a.409.409,0,0,0-.478,0l-.957.691a.423.423,0,0,1-.666-.306.411.411,0,0,1,.021-.145l.385-1.117a.4.4,0,0,0-.148-.451l-.957-.69a.433.433,0,0,1,.239-.775h1.182a.37.37,0,0,0,.386-.233l.365-1.125a.407.407,0,0,1,.773,0l.366,1.125a.37.37,0,0,0,.386.233h1.183a.433.433,0,0,1,.239.775Zm-10.98,0-.957.69a.4.4,0,0,0-.148.451l.385,1.117a.405.405,0,0,1,.02.145.423.423,0,0,1-.666.306l-.957-.691a.409.409,0,0,0-.478,0l-.957.691a.423.423,0,0,1-.666-.306.412.412,0,0,1,.021-.145l.385-1.117a.4.4,0,0,0-.148-.451l-.957-.691a.433.433,0,0,1,.239-.775H1.591a.37.37,0,0,0,.386-.233l.366-1.125a.407.407,0,0,1,.773,0L3.482,13.1a.37.37,0,0,0,.386.233H5.052a.433.433,0,0,1,.239.775Z" transform="translate(3.193 2.3)" fill="#1C9DC7"/>
  </g>
</svg>
