<svg xmlns="http://www.w3.org/2000/svg" width="22" height="22" viewBox="0 0 22 22">
  <g id="pro_tc" transform="translate(-0.381 -0.031)">
    <rect id="Rectangle_2666" data-name="Rectangle 2666" width="22" height="22" rx="3" transform="translate(0.381 0.03)" fill="#ecf0f8"/>
    <g id="accept" transform="translate(3.69 3.272)">
      <path id="Path_6335" data-name="Path 6335" d="M11.067,7.067h.084q.217,0,.43.027V1.827A1.829,1.829,0,0,0,9.754,0H1.827A1.829,1.829,0,0,0,0,1.827V12.335a1.829,1.829,0,0,0,1.827,1.827H7.119a4.648,4.648,0,0,1,3.948-7.095ZM6.552,2.983H9.26a.454.454,0,1,1,0,.907H6.552a.454.454,0,1,1,0-.907Zm0,1.814H9.26a.454.454,0,1,1,0,.907H6.552a.454.454,0,1,1,0-.907ZM5.028,11.179H2.321a.454.454,0,1,1,0-.907H5.028a.454.454,0,1,1,0,.907Zm0-1.845H2.321a.454.454,0,1,1,0-.907H5.028a.454.454,0,1,1,0,.907Zm0-1.814H2.321a.454.454,0,1,1,0-.907H5.028a.454.454,0,1,1,0,.907Zm0-1.814H2.321a.454.454,0,1,1,0-.907H5.028a.454.454,0,1,1,0,.907Zm0-1.814H2.321a.454.454,0,1,1,0-.907H5.028a.454.454,0,1,1,0,.907ZM6.1,7.066a.454.454,0,0,1,.454-.454h1.3a.454.454,0,1,1,0,.907h-1.3A.454.454,0,0,1,6.1,7.066Zm0,0" fill="#1C9DC7"/>
      <path id="Path_6336" data-name="Path 6336" d="M247.832,263.808a3.743,3.743,0,0,0-2.618-1.126h-.068a3.769,3.769,0,1,0,2.686,1.127Zm-1.077,2.03-1.439,1.793a.454.454,0,0,1-.62.083l-1.073-.777a.454.454,0,1,1,.532-.735l.723.524,1.168-1.456a.454.454,0,1,1,.708.568Zm0,0" transform="translate(-234.078 -254.738)" fill="#1C9DC7"/>
    </g>
  </g>
</svg>
