<svg xmlns="http://www.w3.org/2000/svg" width="22" height="22" viewBox="0 0 22 22">
  <g id="pro_pp" transform="translate(0.269 -0.031)">
    <rect id="Rectangle_2666" data-name="Rectangle 2666" width="22" height="22" rx="3" transform="translate(-0.269 0.03)" fill="#ecf0f8"/>
    <g id="Group_5442" data-name="Group 5442" transform="translate(5.091 3.273)">
      <path id="Path_6330" data-name="Path 6330" d="M1826.006,1616.72a8.663,8.663,0,0,1-5.875,2.239s-.008,6.51-.008,7.468c0,1.562,1.057,3.186,5.883,5.777,4.592-2.466,5.857-4.216,5.857-5.777,0-1.175.018-7.468.018-7.468A8.661,8.661,0,0,1,1826.006,1616.72Zm-1.858,4.656a.247.247,0,0,1,0-.03,1.826,1.826,0,0,1,3.629,0c0,.01,0,.02,0,.03v1.1h-.646v-1.089a1.181,1.181,0,0,0-2.339,0v1.089h-.646Zm4.663,6.228a.968.968,0,0,1-.968.968h-3.758a.968.968,0,0,1-.968-.968v-3.477a.968.968,0,0,1,.968-.969h3.758a.968.968,0,0,1,.968.969Z" transform="translate(-1820.123 -1616.72)" fill="#1C9DC7"/>
      <path id="Path_6331" data-name="Path 6331" d="M1987.236,1871.559a.638.638,0,0,0-.213,1.24v.824a.213.213,0,1,0,.426,0v-.824a.638.638,0,0,0-.213-1.24Z" transform="translate(-1981.358 -1863.538)" fill="#1C9DC7"/>
    </g>
  </g>
</svg>
