<svg xmlns="http://www.w3.org/2000/svg" width="22" height="22" viewBox="0 0 22 22">
  <g id="pro_pass" transform="translate(-0.122 -0.031)">
    <rect id="Rectangle_2666" data-name="Rectangle 2666" width="22" height="22" rx="3" transform="translate(0.122 0.03)" fill="#ecf0f8"/>
    <g id="password" transform="translate(4.659 2.936)">
      <g id="Group_5431" data-name="Group 5431" transform="translate(0 0)">
        <path id="Path_6311" data-name="Path 6311" d="M13.808,351.691a.239.239,0,0,0-.325-.086l-.6.345v-.688a.236.236,0,0,0-.472,0v.688l-.6-.345a.238.238,0,1,0-.239.411l.6.349-.6.349a.238.238,0,1,0,.239.411l.6-.345v.688a.236.236,0,1,0,.472,0v-.688l.6.345a.238.238,0,1,0,.239-.411l-.6-.349.6-.349a.237.237,0,0,0,.086-.325Z" transform="translate(-11.071 -339.269)" fill="#1C9DC7"/>
        <path id="Path_6312" data-name="Path 6312" d="M143,352.895a.239.239,0,0,0,.325.086l.6-.345v.688a.236.236,0,0,0,.472,0v-.688l.6.345a.238.238,0,1,0,.239-.411l-.6-.349.6-.349a.238.238,0,1,0-.239-.411l-.6.345v-.688a.236.236,0,1,0-.472,0v.688l-.6-.342a.238.238,0,1,0-.24.411l.6.349-.6.345A.239.239,0,0,0,143,352.895Z" transform="translate(-138.078 -339.128)" fill="#1C9DC7"/>
        <path id="Path_6313" data-name="Path 6313" d="M131.5,456.987v.417a.181.181,0,0,0,.181.181h2.8a.181.181,0,0,0,.181-.181v-.417a.181.181,0,0,0-.181-.181h-2.8A.181.181,0,0,0,131.5,456.987Z" transform="translate(-127.002 -441.428)" fill="#1C9DC7"/>
        <path id="Path_6314" data-name="Path 6314" d="M143.733,11.095h-.02v-.93A2.953,2.953,0,0,0,140.775,7.2a2.9,2.9,0,0,0-2.843,2.889v.089a.244.244,0,0,0,.243.243h.778a.244.244,0,0,0,.243-.243v-.027a1.668,1.668,0,0,1,1.522-1.686,1.628,1.628,0,0,1,1.731,1.621v1.006h-2.4v0h-2.213a.763.763,0,0,0-.742.759v4.208a.764.764,0,0,0,.763.763h5.87a.764.764,0,0,0,.763-.763v-4.2a.758.758,0,0,0-.76-.763Zm-2.483,3.055a.164.164,0,0,0-.075.154c0,.308,0,.616,0,.927h0a.324.324,0,0,1-.174.311.363.363,0,0,1-.54-.311V14.3a.161.161,0,0,0-.068-.147.7.7,0,0,1-.233-.869.719.719,0,0,1,1.375.285.651.651,0,0,1-.282.579Z" transform="translate(-134.717 -7.2)" fill="#1C9DC7"/>
        <path id="Path_6315" data-name="Path 6315" d="M262.9,456.987v.417a.181.181,0,0,0,.181.181h2.8a.181.181,0,0,0,.181-.181v-.417a.181.181,0,0,0-.181-.181h-2.8A.181.181,0,0,0,262.9,456.987Z" transform="translate(-253.907 -441.428)" fill="#1C9DC7"/>
        <path id="Path_6316" data-name="Path 6316" d="M274.4,352.9a.239.239,0,0,0,.325.086l.6-.345v.688a.236.236,0,0,0,.472,0v-.688l.6.345a.238.238,0,1,0,.239-.411l-.6-.349.6-.349a.238.238,0,1,0-.24-.411l-.6.346v-.688a.236.236,0,1,0-.472,0v.688l-.6-.345a.238.238,0,1,0-.239.411l.6.349-.6.349a.239.239,0,0,0-.086.325Z" transform="translate(-264.983 -339.129)" fill="#1C9DC7"/>
        <path id="Path_6318" data-name="Path 6318" d="M.181,457.585h2.8a.181.181,0,0,0,.181-.181v-.417a.181.181,0,0,0-.181-.181H.181a.181.181,0,0,0-.181.181v.417a.181.181,0,0,0,.181.181Z" transform="translate(0 -441.428)" fill="#1C9DC7"/>
      </g>
    </g>
  </g>
</svg>
