<svg xmlns="http://www.w3.org/2000/svg" width="22" height="22" viewBox="0 0 22 22">
  <g id="pro_notification" transform="translate(-0.3 -0.031)">
    <rect id="Rectangle_2666" data-name="Rectangle 2666" width="22" height="22" rx="3" transform="translate(0.3 0.03)" fill="#ecf0f8"/>
    <g id="notification" transform="translate(3.619 2.752)">
      <path id="Path_5906" data-name="Path 5906" d="M137.48,450.054A2.571,2.571,0,0,0,139.994,448h-5.029a2.571,2.571,0,0,0,2.515,2.054Zm0,0" transform="translate(-130.643 -433.649)" fill="#1C9DC7"/>
      <path id="Path_5907" data-name="Path 5907" d="M11.624,49.513h-.008a4.782,4.782,0,0,1-4.327-6.821c-.15-.014-.3-.023-.457-.023A4.788,4.788,0,0,0,2.047,47.46v1.908A4.593,4.593,0,0,1,.414,52.882a1.2,1.2,0,0,0-.376,1.229,1.254,1.254,0,0,0,1.229.878H12.391a1.253,1.253,0,0,0,1.249-.95,1.2,1.2,0,0,0-.408-1.172,4.558,4.558,0,0,1-1.609-3.356Zm0,0" transform="translate(0.005 -41.299)" fill="#1C9DC7"/>
      <path id="Path_5908" data-name="Path 5908" d="M262.857,3.423A3.423,3.423,0,1,1,259.434,0a3.423,3.423,0,0,1,3.423,3.423Zm0,0" transform="translate(-247.817)" fill="#1C9DC7"/>
    </g>
  </g>
</svg>
