<svg xmlns="http://www.w3.org/2000/svg" width="22" height="22" viewBox="0 0 22 22">
  <g id="pro_wh" transform="translate(-0.03 -0.031)">
    <rect id="Rectangle_2666" data-name="Rectangle 2666" width="22" height="22" rx="3" transform="translate(0.03 0.03)" fill="#ecf0f8"/>
    <g id="Group_5445" data-name="Group 5445" transform="translate(3.505 3.271)">
      <path id="Path_6361" data-name="Path 6361" d="M245.812,246.46l-1.762,3.486a5.326,5.326,0,0,1,.548-2.3A2.375,2.375,0,0,1,245.812,246.46Z" transform="translate(-236.67 -239.006)" fill="#1C9DC7"/>
      <path id="Path_6362" data-name="Path 6362" d="M262,254.58a2.358,2.358,0,0,1-.239,1.685,5.329,5.329,0,0,1-1.523,1.8Z" transform="translate(-252.371 -246.881)" fill="#1C9DC7"/>
      <path id="Path_6363" data-name="Path 6363" d="M67.814,211.023h1.251V210.5a1.3,1.3,0,0,0-1.3-1.3H58.33a3.535,3.535,0,0,1-1.3-.245v5.533a1.909,1.909,0,0,0,1.907,1.907h8.825a1.3,1.3,0,0,0,1.3-1.3v-.76H67.814a1.029,1.029,0,0,1-1.028-1.028v-1.25A1.029,1.029,0,0,1,67.814,211.023Zm-9.335,1.052a.272.272,0,0,1,.193-.08H60.35a.274.274,0,1,1,0,.547H58.672a.273.273,0,0,1-.193-.466Zm0,1.094a.272.272,0,0,1,.193-.08h2.773a.274.274,0,1,1,0,.547H58.672a.273.273,0,0,1-.193-.467Zm-.08,1.287a.274.274,0,0,1,.273-.273h2.773a.274.274,0,1,1,0,.547H58.672a.273.273,0,0,1-.273-.274Zm.881,1.6a.518.518,0,1,1,.366-.151.518.518,0,0,1-.366.151Zm5.906-3.791a5.69,5.69,0,0,1-1.149,1.538h0l-.015.015-.074.069-.042.038a6.982,6.982,0,0,1-.737.572l-.008.005h0a5.069,5.069,0,0,1-.472.279l-.453.895a.273.273,0,0,1-.244.15H60.35a.274.274,0,1,1,0-.547h1.3a.273.273,0,0,0,.244-.15l.3-.595a5.989,5.989,0,0,1,.546-3.5,3.493,3.493,0,0,1,.424-.655h0l0,0,.058-.068c.032-.036.075-.083.126-.135a2.5,2.5,0,0,1,.547-.426v0l.045-.026a2.221,2.221,0,0,1,1-.3h.138l.082.11A2.63,2.63,0,0,1,65.186,212.262Zm2.627-1.24h1.251V210.5a1.3,1.3,0,0,0-1.3-1.3H58.33a3.535,3.535,0,0,1-1.3-.245v5.533a1.909,1.909,0,0,0,1.907,1.907h8.825a1.3,1.3,0,0,0,1.3-1.3v-.76H67.814a1.029,1.029,0,0,1-1.028-1.028v-1.25a1.029,1.029,0,0,1,1.028-1.028Zm-9.335,1.052a.272.272,0,0,1,.193-.08H60.35a.274.274,0,1,1,0,.547H58.672a.273.273,0,0,1-.193-.466Zm0,1.094a.272.272,0,0,1,.193-.08h2.773a.274.274,0,1,1,0,.547H58.672a.273.273,0,0,1-.193-.467Zm-.08,1.287a.274.274,0,0,1,.273-.273h2.773a.274.274,0,1,1,0,.547H58.672a.273.273,0,0,1-.273-.274Zm.881,1.6a.518.518,0,1,1,.366-.151.518.518,0,0,1-.366.151Zm5.906-3.791a5.69,5.69,0,0,1-1.149,1.538h0l-.015.015-.074.069-.042.038a6.982,6.982,0,0,1-.737.572l-.008.005h0a5.069,5.069,0,0,1-.472.279l-.453.895a.273.273,0,0,1-.244.15H60.35a.274.274,0,1,1,0-.547h1.3a.273.273,0,0,0,.244-.15l.3-.595a5.989,5.989,0,0,1,.546-3.5,3.493,3.493,0,0,1,.424-.655h0l0,0,.058-.068c.032-.036.075-.083.126-.135a2.5,2.5,0,0,1,.547-.426v0l.045-.026a2.221,2.221,0,0,1,1-.3h.138l.082.11A2.63,2.63,0,0,1,65.186,212.262Zm2.627-1.24h1.251V210.5a1.3,1.3,0,0,0-1.3-1.3H58.33a3.535,3.535,0,0,1-1.3-.245v5.533a1.909,1.909,0,0,0,1.907,1.907h8.825a1.3,1.3,0,0,0,1.3-1.3v-.76H67.814a1.029,1.029,0,0,1-1.028-1.028v-1.25a1.029,1.029,0,0,1,1.028-1.028Zm-9.335,1.052a.272.272,0,0,1,.193-.08H60.35a.274.274,0,1,1,0,.547H58.672a.273.273,0,0,1-.193-.466Zm0,1.094a.272.272,0,0,1,.193-.08h2.773a.274.274,0,1,1,0,.547H58.672a.273.273,0,0,1-.193-.467Zm-.08,1.287a.274.274,0,0,1,.273-.273h2.773a.274.274,0,1,1,0,.547H58.672a.273.273,0,0,1-.273-.274Zm.881,1.6a.518.518,0,1,1,.366-.151.518.518,0,0,1-.366.151Zm5.906-3.791a5.69,5.69,0,0,1-1.149,1.538h0l-.015.015-.074.069-.042.038a6.982,6.982,0,0,1-.737.572l-.008.005h0a5.069,5.069,0,0,1-.472.279l-.453.895a.273.273,0,0,1-.244.15H60.35a.274.274,0,1,1,0-.547h1.3a.273.273,0,0,0,.244-.15l.3-.595a5.989,5.989,0,0,1,.546-3.5,3.493,3.493,0,0,1,.424-.655h0l0,0,.058-.068c.032-.036.075-.083.126-.135a2.5,2.5,0,0,1,.547-.426v0l.045-.026a2.221,2.221,0,0,1,1-.3h.138l.082.11A2.63,2.63,0,0,1,65.186,212.262Z" transform="translate(-55.306 -202.631)" fill="#1C9DC7"/>
      <path id="Path_6364" data-name="Path 6364" d="M90.157,80.06H80.723a.6.6,0,1,0,0,1.21h9.434a.6.6,0,1,0,0-1.21Z" transform="translate(-77.699 -77.637)" fill="#1C9DC7"/>
      <path id="Path_6365" data-name="Path 6365" d="M14.917,4.266a.6.6,0,0,0,.6-.6V3.026A3.029,3.029,0,0,0,12.5,0s-9.48,0-9.5,0A3.086,3.086,0,0,0,.875.953,2.98,2.98,0,0,0,.041,3.13c0,.016,0,8.722,0,8.722a3.635,3.635,0,0,0,3.631,3.631H12.5a3.029,3.029,0,0,0,3.025-3.026V7.866A3.029,3.029,0,0,0,12.5,4.84H3.063A1.811,1.811,0,0,1,1.251,3.112a1.782,1.782,0,0,1,.5-1.324A1.871,1.871,0,0,1,3.1,1.212l9.4,0a1.819,1.819,0,0,1,1.817,1.816v.635A.6.6,0,0,0,14.917,4.266ZM3.063,6.05H12.5a1.819,1.819,0,0,1,1.817,1.816V8.9H12.548a.513.513,0,0,0-.513.513v1.251a.513.513,0,0,0,.513.514h1.765v1.274A1.819,1.819,0,0,1,12.5,14.274H3.671a2.424,2.424,0,0,1-2.422-2.421V5.447a3.016,3.016,0,0,0,1.814.6ZM13.2,10.044a.287.287,0,1,1-.287-.287A.287.287,0,0,1,13.2,10.044Z" transform="translate(-0.04 0)" fill="#1C9DC7"/>
    </g>
  </g>
</svg>
