<svg xmlns="http://www.w3.org/2000/svg" width="22" height="22" viewBox="0 0 22 22">
  <g id="pro_address" transform="translate(0.391 -0.031)">
    <rect id="Rectangle_2666" data-name="Rectangle 2666" width="22" height="22" rx="3" transform="translate(-0.391 0.03)" fill="#ecf0f8"/>
    <g id="Group_5210" data-name="Group 5210" transform="translate(3.344 2.803)">
      <g id="Group_5209" data-name="Group 5209" transform="translate(0)">
        <path id="Path_5916" data-name="Path 5916" d="M49.894,317.327a12.821,12.821,0,0,1-1.184,1.127,6.106,6.106,0,0,1-5.464,5.972V312.3l.049.007a4.47,4.47,0,0,1,.361-1.22,7.425,7.425,0,1,0,6.238,6.242ZM39.711,313a10.322,10.322,0,0,0-1.291,4.941H36.537A6.1,6.1,0,0,1,39.711,313Zm-3.131,6.2h1.855a10.071,10.071,0,0,0,1.275,4.521A6.109,6.109,0,0,1,36.581,319.2Zm5.4,5.11c-1.237-.588-2.1-2.844-2.277-5.11h2.277Zm0-6.372h-2.3c.1-2.4.989-4.907,2.3-5.53Z" transform="translate(-35.124 -309.318)" fill="#1C9DC7"/>
        <path id="Path_5917" data-name="Path 5917" d="M60.149,307a3.528,3.528,0,0,0-3.513,3.9c.214,2.462,2.478,4.3,3.254,4.859a.423.423,0,0,0,.51-.009c.805-.629,3.279-2.761,3.279-5.224A3.529,3.529,0,0,0,60.149,307Zm0,5.176a1.647,1.647,0,1,1,1.647-1.647,1.647,1.647,0,0,1-1.647,1.647Z" transform="translate(-47.668 -307)" fill="#1C9DC7"/>
      </g>
    </g>
  </g>
</svg>
