<svg xmlns="http://www.w3.org/2000/svg" width="22" height="22" viewBox="0 0 22 22">
  <g id="pro_setting" transform="translate(-0.162 -0.031)">
    <rect id="Rectangle_2666" data-name="Rectangle 2666" width="22" height="22" rx="3" transform="translate(0.162 0.03)" fill="#ecf0f8"/>
    <g id="settings" transform="translate(3.539 2.934)">
      <g id="Group_5204" data-name="Group 5204">
        <g id="Group_5203" data-name="Group 5203">
          <path id="Path_5913" data-name="Path 5913" d="M37.242,0a1.444,1.444,0,0,0-1.4,1.1A7.243,7.243,0,0,0,30,8.2a.481.481,0,0,0,.961,0,6.282,6.282,0,0,1,4.976-6.144A1.442,1.442,0,1,0,37.242,0Z" transform="translate(-30)" fill="#1C9DC7"/>
        </g>
      </g>
      <g id="Group_5206" data-name="Group 5206" transform="translate(2.917 3.877)">
        <g id="Group_5205" data-name="Group 5205" transform="translate(0 0)">
          <path id="Path_5914" data-name="Path 5914" d="M129.45,124.452a3.42,3.42,0,0,0-.5-.277l-.249-.6a3.441,3.441,0,0,0,.156-.546.48.48,0,0,0-.133-.425l-.676-.676a.481.481,0,0,0-.425-.133,3.417,3.417,0,0,0-.546.156l-.6-.249a3.436,3.436,0,0,0-.277-.5.481.481,0,0,0-.395-.207h-.956a.481.481,0,0,0-.395.207,3.421,3.421,0,0,0-.277.5l-.6.249a3.444,3.444,0,0,0-.546-.156.481.481,0,0,0-.425.133l-.676.676a.48.48,0,0,0-.133.425,3.417,3.417,0,0,0,.156.546l-.249.6a3.437,3.437,0,0,0-.5.277.481.481,0,0,0-.207.395v.956a.48.48,0,0,0,.207.395,3.418,3.418,0,0,0,.5.277l.249.6a3.441,3.441,0,0,0-.156.546.48.48,0,0,0,.133.425l.676.676a.481.481,0,0,0,.425.133,3.421,3.421,0,0,0,.546-.155l.6.249a3.437,3.437,0,0,0,.277.495.481.481,0,0,0,.395.207h.956a.481.481,0,0,0,.395-.207,3.421,3.421,0,0,0,.277-.495l.6-.249a3.445,3.445,0,0,0,.546.156.481.481,0,0,0,.425-.133l.676-.676a.48.48,0,0,0,.133-.425,3.417,3.417,0,0,0-.156-.546l.249-.6a3.435,3.435,0,0,0,.5-.277.48.48,0,0,0,.207-.395v-.956A.481.481,0,0,0,129.45,124.452Zm-4.12,2.8a1.922,1.922,0,1,1,1.923-1.922A1.923,1.923,0,0,1,125.33,127.247Z" transform="translate(-121.006 -120.999)" fill="#1C9DC7"/>
        </g>
      </g>
      <g id="Group_5208" data-name="Group 5208" transform="translate(5.802 7.722)">
        <g id="Group_5207" data-name="Group 5207" transform="translate(0 0)">
          <path id="Path_5915" data-name="Path 5915" d="M219.208,241a.481.481,0,0,0-.48.48,6.283,6.283,0,0,1-4.976,6.144,1.441,1.441,0,1,0,.1.961,7.243,7.243,0,0,0,5.84-7.105.481.481,0,0,0-.48-.48Z" transform="translate(-211.007 -241)" fill="#1C9DC7"/>
        </g>
      </g>
    </g>
  </g>
</svg>
