<svg xmlns="http://www.w3.org/2000/svg" width="22" height="22" viewBox="0 0 22 22">
  <g id="pro_th" transform="translate(0.01 -0.031)">
    <rect id="Rectangle_2666" data-name="Rectangle 2666" width="22" height="22" rx="3" transform="translate(-0.01 0.03)" fill="#ecf0f8"/>
    <g id="Group_5446" data-name="Group 5446" transform="translate(4.089 3.272)">
      <path id="Path_6366" data-name="Path 6366" d="M70.307,38a.308.308,0,0,0-.307.308V50.484a.677.677,0,0,1,.785.125l.591.591,1.013-.676a.676.676,0,0,1,.75,0l1.1.733,1.1-.733a.678.678,0,0,1,.75,0L77.1,51.2l.591-.591a.678.678,0,0,1,.785-.124V38.307A1.665,1.665,0,0,1,78.508,38Zm.859,10.629a.369.369,0,0,1-.737,0V46.663a.369.369,0,0,1,.737,0Zm.983,0a.369.369,0,0,1-.737,0V46.663a.369.369,0,0,1,.737,0Zm1.475,0a.369.369,0,0,1-.737,0V46.663a.369.369,0,0,1,.737,0Zm.983,0a.369.369,0,0,1-.737,0V46.663a.369.369,0,0,1,.737,0Zm.983,0a.369.369,0,0,1-.737,0V46.663a.369.369,0,0,1,.737,0Zm-1.842-7.25h.983a1.352,1.352,0,1,1,0,2.7h-.123V44.7a.369.369,0,0,1-.737,0v-.614H73.5A1.107,1.107,0,0,1,72.4,42.976a.369.369,0,0,1,.737,0,.369.369,0,0,0,.369.369h1.229a.614.614,0,1,0,0-1.229h-.983a1.352,1.352,0,1,1,0-2.7h.123V38.8a.369.369,0,0,1,.737,0v.614h.368a1.107,1.107,0,0,1,1.107,1.106.369.369,0,0,1-.737,0,.369.369,0,0,0-.369-.368H73.748a.614.614,0,1,0,0,1.229Zm3.318,7.25a.369.369,0,0,1-.737,0V46.663a.369.369,0,0,1,.737,0Zm.983,0a.369.369,0,0,1-.737,0V46.663a.369.369,0,0,1,.737,0Z" transform="translate(-68.955 -36.956)" fill="#1C9DC7"/>
      <g id="_29-Receipt" data-name=" 29-Receipt" transform="translate(0 0)">
        <g id="filled" transform="translate(0 0)">
          <path id="Path_6367" data-name="Path 6367" d="M50.126,5.966h-1.6V5.352A1.353,1.353,0,0,0,47.177,4H37.346a1.353,1.353,0,0,0-1.352,1.352V19.113a.371.371,0,0,0,.63.26l.7-.7.019-.019.019.019.7.7a.369.369,0,0,0,.467.046l1.124-.75.146-.1.146.1,1.123.749a.369.369,0,0,0,.409,0l1.124-.749.146-.1.146.1,1.124.749a.368.368,0,0,0,.465-.046l.7-.7.019-.019.019.019.7.7a.371.371,0,0,0,.629-.261V12.6h2.581A1.353,1.353,0,0,0,50.5,11.25V6.335a.369.369,0,0,0-.369-.369ZM44.95,17.87l-.77.769-1.223-.816a.37.37,0,0,0-.409,0l-1.27.847-1.27-.847a.369.369,0,0,0-.409,0l-1.223.815-.769-.769a.369.369,0,0,0-.522,0l-.354.353V5.352a.615.615,0,0,1,.615-.614h8.628a1.344,1.344,0,0,0-.148.614V18.224l-.355-.354a.369.369,0,0,0-.521,0Zm1.612-6.006V5.352a.614.614,0,1,1,1.229,0v5.9a1.344,1.344,0,0,0,.148.614Zm3.2-.614a.614.614,0,1,1-1.229,0V6.7h1.229Z" transform="translate(-35.994 -4)" fill="#1C9DC7"/>
        </g>
      </g>
    </g>
  </g>
</svg>
