<svg id="pro_referral" xmlns="http://www.w3.org/2000/svg" width="22" height="22" viewBox="0 0 22 22">
  <rect id="Rectangle_2666" data-name="Rectangle 2666" width="22" height="22" rx="3" transform="translate(0 0)" fill="#ecf0f8"/>
  <g id="referral" transform="translate(3.332 3.332)">
    <circle id="Ellipse_494" data-name="Ellipse 494" cx="1.04" cy="1.04" r="1.04" transform="translate(7.541 1.04)" fill="#1C9DC7"/>
    <ellipse id="Ellipse_495" data-name="Ellipse 495" cx="1.17" cy="1.04" rx="1.17" ry="1.04" transform="translate(3.641 1.04)" fill="#1C9DC7"/>
    <path id="Path_6446" data-name="Path 6446" d="M34.245,17l-.2,2.028.255.255.255-.255L34.349,17,34.3,17Z" transform="translate(-25.779 -13.273)" fill="#1C9DC7"/>
    <path id="Path_6447" data-name="Path 6447" d="M13,19.861v1.065h3.194V19.861a2.647,2.647,0,0,1,.456-1.488A2.119,2.119,0,0,0,16.156,18,1.06,1.06,0,0,1,14.1,18,2.131,2.131,0,0,0,13,19.861Z" transform="translate(-10.338 -14.005)" fill="#1C9DC7"/>
    <path id="Path_6448" data-name="Path 6448" d="M19.026,17.068a.529.529,0,0,0,1.051,0,2.064,2.064,0,0,0-1.051,0Z" transform="translate(-14.76 -13.273)" fill="#1C9DC7"/>
    <path id="Path_6449" data-name="Path 6449" d="M23,35h.532v3.194H23Z" transform="translate(-17.676 -26.482)" fill="#1C9DC7"/>
    <path id="Path_6450" data-name="Path 6450" d="M9.266,36.417A.266.266,0,0,0,9,36.683v1.065a.266.266,0,0,0,.266.266h.8a4.286,4.286,0,0,1,2.13.574V35.843a4.286,4.286,0,0,1-2.13.574Z" transform="translate(-7.403 -27.101)" fill="#1C9DC7"/>
    <path id="Path_6451" data-name="Path 6451" d="M27,38.184v1.5a.794.794,0,0,0,0-1.5Z" transform="translate(-20.611 -28.818)" fill="#1C9DC7"/>
    <path id="Path_6452" data-name="Path 6452" d="M10.719,31H3.8a.8.8,0,0,0-.8.8V36.59a.8.8,0,0,0,.8.8H7.358L9.132,38.91a.317.317,0,0,0,.523-.24V37.389h1.065a.8.8,0,0,0,.8-.8V31.8A.8.8,0,0,0,10.719,31ZM9.389,34.966v.825H7.969L7.9,35.738a3.737,3.737,0,0,0-1.171-.586v.905a.8.8,0,0,1-1.6,0V34.993H4.863a.8.8,0,0,1-.8-.8V33.13a.8.8,0,0,1,.8-.8h.8A3.75,3.75,0,0,0,7.9,31.586l.071-.053h1.42v.825a1.331,1.331,0,0,1,0,2.608Zm1.6,1.358a.533.533,0,0,1-.532.532H9.921v-.532h.532v-1.6h.532Z" transform="translate(-3 -23.547)" fill="#1C9DC7"/>
    <path id="Path_6453" data-name="Path 6453" d="M27,19.367v1.065h4.259V19.367a2.132,2.132,0,0,0-1.534-2.043l.214,2.142-.81.809-.81-.81.214-2.142A2.133,2.133,0,0,0,27,19.367Z" transform="translate(-20.611 -13.511)" fill="#1C9DC7"/>
    <circle id="Ellipse_496" data-name="Ellipse 496" cx="1.04" cy="1.04" r="1.04" transform="translate(11.182 1.04)" fill="#1C9DC7"/>
    <path id="Path_6454" data-name="Path 6454" d="M43.287,18.373a2.647,2.647,0,0,1,.456,1.488v1.065h3.194V19.861A2.131,2.131,0,0,0,45.835,18a1.06,1.06,0,0,1-2.054,0,2.121,2.121,0,0,0-.494.375Z" transform="translate(-32.563 -14.005)" fill="#1C9DC7"/>
    <path id="Path_6455" data-name="Path 6455" d="M22.043,3H9.8a.8.8,0,0,0-.8.8V9.921h.532V8.856A2.665,2.665,0,0,1,11.21,6.385a1.6,1.6,0,1,1,1.967,0,2.645,2.645,0,0,1,.882.572,2.663,2.663,0,0,1,.878-.572,1.6,1.6,0,1,1,1.968,0,2.672,2.672,0,0,1,.878.572,2.646,2.646,0,0,1,.882-.572,1.6,1.6,0,1,1,1.967,0,2.665,2.665,0,0,1,1.678,2.471v1.6H16.18a1.318,1.318,0,0,1,.246.532h1.723l1.774,1.521a.317.317,0,0,0,.523-.24V10.986h1.6a.8.8,0,0,0,.8-.8V3.8A.8.8,0,0,0,22.043,3ZM10.065,6.727H9.532V6.194h.532ZM10.6,4.065h-.532v1.6H9.532v-1.6a.533.533,0,0,1,.532-.532H10.6Zm11.712,2.13h-.532V5.662h.532Zm0-1.065h-.532V4.6h.532Zm0-1.065h-.532V3.532h.532Z" transform="translate(-7.403 -3)" fill="#1C9DC7"/>
    <path id="Path_6456" data-name="Path 6456" d="M47.026,17.068a.529.529,0,0,0,1.051,0,2.064,2.064,0,0,0-1.051,0Z" transform="translate(-35.307 -13.273)" fill="#1C9DC7"/>
    <path id="Path_6457" data-name="Path 6457" d="M13,47.065a.266.266,0,1,0,.532,0V46.041A3.673,3.673,0,0,0,13,46Z" transform="translate(-10.338 -34.554)" fill="#1C9DC7"/>
  </g>
</svg>
