<svg xmlns="http://www.w3.org/2000/svg" width="22" height="22" viewBox="0 0 22 22">
  <g id="pro_favourite" transform="translate(0.351 -0.031)">
    <rect id="Rectangle_2666" data-name="Rectangle 2666" width="22" height="22" rx="3" transform="translate(-0.351 0.03)" fill="#ecf0f8"/>
    <g id="favorite" transform="translate(3.149 3.008)">
      <path id="Path_5909" data-name="Path 5909" d="M15.463,20.236a.513.513,0,0,1-.307-.1C14.73,19.818,11,16.975,11,14.564a2.578,2.578,0,0,1,4.463-1.747,2.578,2.578,0,0,1,4.463,1.747c0,2.41-3.73,5.254-4.156,5.57A.513.513,0,0,1,15.463,20.236Z" transform="translate(-3.52 -3.832)" fill="#1C9DC7"/>
      <path id="Path_5910" data-name="Path 5910" d="M6.424,0,3.088.014A1.2,1.2,0,0,0,2.044.632L.3,3.789l5.788-.014Z" transform="translate(-0.087 0.014)" fill="#1C9DC7"/>
      <path id="Path_5911" data-name="Path 5911" d="M16.872,3.756,15.107.6a1.207,1.207,0,0,0-1.05-.618L10.72-.006l.35,3.775Z" transform="translate(-3.409 0.02)" fill="#1C9DC7"/>
      <path id="Path_5912" data-name="Path 5912" d="M13.729,9.056a3.942,3.942,0,0,0-1.716.474,4,4,0,0,0-1.889-.48,3.947,3.947,0,0,0-3.948,3.939A5.463,5.463,0,0,0,7.2,15.914l-6.1.02H1.1A1.086,1.086,0,0,1,.019,14.85L-.01,7l6.35-.014H7.37l6.35-.02Z" transform="translate(0.01 -2.225)" fill="#1C9DC7"/>
    </g>
  </g>
</svg>
