<svg xmlns="http://www.w3.org/2000/svg" width="22" height="22" viewBox="0 0 22 22">
  <g id="pro_theme" transform="translate(0.188 -0.031)">
    <rect id="Rectangle_2666" data-name="Rectangle 2666" width="22" height="22" rx="3" transform="translate(-0.188 0.03)" fill="#ecf0f8"/>
    <g id="theme" transform="translate(3.022 3.272)">
      <path id="Path_6324" data-name="Path 6324" d="M242,182.455v2.732a.455.455,0,0,0,.455.455h5.465a.455.455,0,0,0,.456-.455v-2.732a.455.455,0,0,0-.456-.455h-5.465A.455.455,0,0,0,242,182.455Z" transform="translate(-234.673 -176.503)" fill="#1C9DC7"/>
      <path id="Path_6325" data-name="Path 6325" d="M304.277,422h-1.822a.455.455,0,0,0-.455.455v1.821a.455.455,0,0,0,.455.455h1.822a.455.455,0,0,0,.455-.455v-1.821a.455.455,0,0,0-.455-.455Z" transform="translate(-292.846 -409.249)" fill="#1C9DC7"/>
      <path id="Path_6326" data-name="Path 6326" d="M249.489.455A.455.455,0,0,0,249.033,0h-1.366V1.821h1.822Z" transform="translate(-240.159)" fill="#1C9DC7"/>
      <path id="Path_6327" data-name="Path 6327" d="M6.609,0H.455A.455.455,0,0,0,0,.455V1.821H6.609Z" fill="#1C9DC7"/>
      <path id="Path_6328" data-name="Path 6328" d="M9.34,97.8v-.455H7.8a1.368,1.368,0,0,1-1.366-1.366V93.248A1.368,1.368,0,0,1,7.8,91.882H9.34V90H0v7.8a.455.455,0,0,0,.455.455h8.43A.455.455,0,0,0,9.34,97.8Zm-4.727-1.4H1.822a.455.455,0,1,1,0-.911H4.613a.455.455,0,1,1,0,.911Zm0-1.821H1.822a.455.455,0,1,1,0-.911H4.613a.455.455,0,1,1,0,.911Zm0-1.821H1.822a.455.455,0,1,1,0-.911H4.613a.455.455,0,1,1,0,.911Z" transform="translate(0 -87.29)" fill="#1C9DC7"/>
      <path id="Path_6329" data-name="Path 6329" d="M336.554,229.58v2.654a.456.456,0,0,1-.455.455h-2.732A1.368,1.368,0,0,0,332,234.055v.454h.911v-.455a.456.456,0,0,1,.455-.455H336.1a1.368,1.368,0,0,0,1.366-1.366v-1.366A1.368,1.368,0,0,0,336.554,229.58Z" transform="translate(-321.941 -222.65)" fill="#1C9DC7"/>
    </g>
  </g>
</svg>
