<svg xmlns="http://www.w3.org/2000/svg" width="18" height="18" viewBox="0 0 18 18">
  <g id="profile" transform="translate(-1306 -216.318)">
    <rect id="Rectangle_2635" data-name="Rectangle 2635" width="18" height="18" transform="translate(1306 216.319)" fill="#fff"/>
    <path id="user" d="M16.536,8.247A8.269,8.269,0,1,0,2.683,14.338l-.008.007.268.226c.018.015.036.027.054.041.142.118.29.23.44.339.049.035.1.07.147.1q.241.166.494.315l.111.064c.184.1.372.2.565.295l.043.019a8.194,8.194,0,0,0,2,.633l.055.01c.218.038.438.068.661.088l.081.006c.222.018.446.03.673.03s.448-.012.668-.03l.084-.006q.331-.03.655-.086l.056-.01a8.194,8.194,0,0,0,1.971-.618l.069-.031q.278-.131.544-.281l.132-.076c.162-.1.321-.195.475-.3.056-.038.11-.078.165-.118q.2-.142.387-.3c.028-.023.058-.042.085-.065l.275-.229-.008-.007a8.247,8.247,0,0,0,2.708-6.115ZM.6,8.247a7.667,7.667,0,1,1,12.752,5.732,2.254,2.254,0,0,0-.268-.162l-2.546-1.272a.667.667,0,0,1-.37-.6v-.89c.059-.073.121-.155.185-.246a6.127,6.127,0,0,0,.787-1.54,1.091,1.091,0,0,0,.627-.989V7.216A1.094,1.094,0,0,0,11.5,6.5V5.1a2.425,2.425,0,0,0-.566-1.763,3.386,3.386,0,0,0-2.667-.953A3.384,3.384,0,0,0,5.6,3.337,2.425,2.425,0,0,0,5.036,5.1V6.5a1.1,1.1,0,0,0-.267.712V8.282a1.094,1.094,0,0,0,.4.848,5.65,5.65,0,0,0,.93,1.921v.87a.671.671,0,0,1-.349.589l-2.378,1.3a2.173,2.173,0,0,0-.226.143A7.649,7.649,0,0,1,.6,8.247Z" transform="translate(1307.019 217.039)" fill="#1C9DC7"/>
  </g>
</svg>
