<svg xmlns="http://www.w3.org/2000/svg" xmlns:xlink="http://www.w3.org/1999/xlink" width="347" height="161" viewBox="0 0 347 161">
  <defs>
    <linearGradient id="linear-gradient" x2="1" y2="1" gradientUnits="objectBoundingBox">
      <stop offset="0" stop-color="#ffbd69"/>
      <stop offset="1" stop-color="#ff6363"/>
    </linearGradient>
  </defs>
  <g id="sliderph" transform="translate(18501 13415)">
    <rect id="sliderph-2" data-name="sliderph" width="347" height="161" transform="translate(-18501 -13415)" fill="none"/>
    <g id="Group_5448" data-name="Group 5448" transform="translate(-18379.344 -13372.946)" opacity="0.55">
      <g id="Group_5041" data-name="Group 5041" transform="translate(0 0)">
        <path id="Path_5826" data-name="Path 5826" d="M356.922,486.218a9.654,9.654,0,0,1-8.381-4.895l-27.4-48.67a5.563,5.563,0,0,0-4.251-2.8l-13.2-1.408a1.931,1.931,0,0,1-1.714-2.125l.02-.193a1.93,1.93,0,0,1,2.125-1.715l13.2,1.408a9.626,9.626,0,0,1,7.355,4.841l27.4,48.67a5.573,5.573,0,0,0,5.245,2.814l34.842-2.549a1.931,1.931,0,0,1,2.067,1.785l.014.193a1.931,1.931,0,0,1-1.785,2.067l-34.842,2.55Q357.268,486.218,356.922,486.218Z" transform="translate(-301.956 -424.405)" fill="url(#linear-gradient)"/>
      </g>
      <path id="Path_5827" data-name="Path 5827" d="M461.192,492.972c-1.2.38-2.114,1.46-3.472,1.419-.01-.461.269-.629.552-.791-.284-.684.436-.821.791-1.105.421-1.156,1.4-1.749,1.972-2.763.193.036.172-.142.4-.075,1.627-1.632,3.614-2.91,5.368-4.42.613.182.9-.618,1.577-.634a20.453,20.453,0,0,1-7.183,8.368Z" transform="translate(-378.761 -454.089)" fill="url(#linear-gradient)"/>
      <path id="Path_5828" data-name="Path 5828" d="M435.517,453H375.423a2.081,2.081,0,0,0-1.845,3.041l16.769,32.093a4.3,4.3,0,0,0,3.929,2.306l33.081-.851a5.2,5.2,0,0,0,4.785-3.5l8.83-25.423a5.776,5.776,0,0,0-5.454-7.67Zm-4.846,25.412c-1.45,1.759-2.839,3.58-4.968,4.658a2.281,2.281,0,0,1-1.343,1.181c.127.406-.786.274-.791.791-.664.172-1.105.1-1.338.71-1.151.066-1.642.624-2.687.314-.075.187-.34.187-.471.319-.238-.132-.679-.061-.791-.319-.406.2-1.47.182-1.577-.39-.563.238-.8-.375-1.343-.4-1.029-1.105-2.129-1.749-2.525-3.555a2.554,2.554,0,0,1-.634-1.5c-.847-1.014-2.372-.583-3.944-.71-.933-.071-2.134-.776-3.1-.715l-.117-.005.2-.111c2.332-.025,4.481.3,6.651-.036a13.4,13.4,0,0,1,.552-2.448,4.383,4.383,0,0,1,.314-1.734c.147-.233.461-.325.634-.552.482-.634.765-1.384,1.262-2.053.781-1.049,1.683-1.962,2.525-3a57.7,57.7,0,0,1,5.211-3.7c.406-.218.892-.284,1.181-.71.831-.127,1.282-.644,2.053-.552,1.059.122,1.784,1.277,2.681,1.577.294.056.34-.137.634-.075,1.308.73,1.521,2.235.867,3.787-.167.4-.588.816-.867,1.338a17.081,17.081,0,0,1-1.419,2.606c-.152.188-.411.294-.552.476a13.162,13.162,0,0,1-1.815,1.891c-2.448,1-3.888,3.006-6.392,3.949a14.43,14.43,0,0,1-1.9,1.1c-.6-.162-.76.309-1.1.162-1.13,2.514,3.863,2.423,4.973,2.525,1.151-.3,1.987-.907,3.154-1.186a60.335,60.335,0,0,0,9.317-6.311A14.779,14.779,0,0,1,430.671,478.412Z" transform="translate(-337.159 -438.505)" fill="url(#linear-gradient)"/>
      <ellipse id="Ellipse_475" data-name="Ellipse 475" cx="4.879" cy="5.513" rx="4.879" ry="5.513" transform="translate(52.424 66.327)" fill="url(#linear-gradient)"/>
      <ellipse id="Ellipse_476" data-name="Ellipse 476" cx="5.513" cy="4.594" rx="5.513" ry="4.594" transform="matrix(0.099, -0.995, 0.995, 0.099, 80.668, 73.703)" fill="url(#linear-gradient)"/>
    </g>
  </g>
</svg>
