<svg xmlns="http://www.w3.org/2000/svg" xmlns:xlink="http://www.w3.org/1999/xlink" width="255.48" height="207.416" viewBox="0 0 255.48 207.416">
  <defs>
    <filter id="Path_5852" x="0.001" y="91.012" width="255.48" height="78.1" filterUnits="userSpaceOnUse">
      <feOffset dy="0.5" input="SourceAlpha"/>
      <feGaussianBlur stdDeviation="2" result="blur"/>
      <feFlood flood-opacity="0.161"/>
      <feComposite operator="in" in2="blur"/>
      <feComposite in="SourceGraphic"/>
    </filter>
    <filter id="Path_5853" x="49.644" y="173.803" width="155.195" height="33.613" filterUnits="userSpaceOnUse">
      <feOffset dy="0.5" input="SourceAlpha"/>
      <feGaussianBlur stdDeviation="2" result="blur-2"/>
      <feFlood flood-opacity="0.161"/>
      <feComposite operator="in" in2="blur-2"/>
      <feComposite in="SourceGraphic"/>
    </filter>
    <filter id="Path_5826" x="85.138" y="0" width="125.679" height="88.139" filterUnits="userSpaceOnUse">
      <feOffset dy="0.5" input="SourceAlpha"/>
      <feGaussianBlur stdDeviation="2" result="blur-3"/>
      <feFlood flood-opacity="0.161"/>
      <feComposite operator="in" in2="blur-3"/>
      <feComposite in="SourceGraphic"/>
    </filter>
    <filter id="Path_5827" x="182.396" y="37.584" width="25.125" height="24.059" filterUnits="userSpaceOnUse">
      <feOffset dy="0.5" input="SourceAlpha"/>
      <feGaussianBlur stdDeviation="2" result="blur-4"/>
      <feFlood flood-opacity="0.161"/>
      <feComposite operator="in" in2="blur-4"/>
      <feComposite in="SourceGraphic"/>
    </filter>
    <filter id="Path_5828" x="129.707" y="17.855" width="95.694" height="58.119" filterUnits="userSpaceOnUse">
      <feOffset dy="0.5" input="SourceAlpha"/>
      <feGaussianBlur stdDeviation="2" result="blur-5"/>
      <feFlood flood-opacity="0.161"/>
      <feComposite operator="in" in2="blur-5"/>
      <feComposite in="SourceGraphic"/>
    </filter>
    <filter id="Ellipse_475" x="149.711" y="81.699" width="24.02" height="25.58" filterUnits="userSpaceOnUse">
      <feOffset dy="0.5" input="SourceAlpha"/>
      <feGaussianBlur stdDeviation="2" result="blur-6"/>
      <feFlood flood-opacity="0.161"/>
      <feComposite operator="in" in2="blur-6"/>
      <feComposite in="SourceGraphic"/>
    </filter>
    <filter id="Ellipse_476" x="184.502" y="77.27" width="24.604" height="26.631" filterUnits="userSpaceOnUse">
      <feOffset dy="0.5" input="SourceAlpha"/>
      <feGaussianBlur stdDeviation="2" result="blur-7"/>
      <feFlood flood-opacity="0.161"/>
      <feComposite operator="in" in2="blur-7"/>
      <feComposite in="SourceGraphic"/>
    </filter>
  </defs>
  <g id="splashlogo" transform="translate(18178.242 14411.742)">
    <rect id="splashlogo-2" data-name="splashlogo" width="251" height="203" transform="translate(-18176 -14410)" fill="none"/>
    <g id="splashlogo-3" data-name="splashlogo" transform="translate(-18172.242 -14406.243)">
      <g id="sublogo" transform="translate(0 91.012)">
        <g transform="matrix(1, 0, 0, 1, -6, -96.51)" filter="url(#Path_5852)">
          <path id="Path_5852-2" data-name="Path 5852" d="M20.795-86.987a8.234,8.234,0,0,0,3.425,5.16,12.138,12.138,0,0,0,6.449,1.512,30.575,30.575,0,0,0,5.782-.623,34.929,34.929,0,0,0,6.316-1.868,28.5,28.5,0,0,1,2.18,5.515,26.118,26.118,0,0,1,1.023,6.672,46.226,46.226,0,0,1-16.19,2.936,30.367,30.367,0,0,1-10.986-1.779A19.493,19.493,0,0,1,11.32-74.4a19.817,19.817,0,0,1-4.27-7.516,31.42,31.42,0,0,1-1.378-9.519,31.055,31.055,0,0,1,1.422-9.52,21.863,21.863,0,0,1,4.271-7.739,20.136,20.136,0,0,1,7.115-5.2,24.182,24.182,0,0,1,9.963-1.913,20.941,20.941,0,0,1,8.407,1.6,18.3,18.3,0,0,1,6.272,4.4,19.127,19.127,0,0,1,3.958,6.761,25.93,25.93,0,0,1,1.378,8.584,37.658,37.658,0,0,1-.222,4.314q-.222,1.913-.4,3.158Zm7.117-17.525a7.207,7.207,0,0,0-4.893,1.779,7.99,7.99,0,0,0-2.4,5.515H34.85a8.685,8.685,0,0,0-1.914-5.2A6.159,6.159,0,0,0,27.911-104.512ZM81.019-107.8q3.736,1.512,6.717,3.069A20.149,20.149,0,0,1,92.851-101a14.9,14.9,0,0,1,3.291,5.249A21.127,21.127,0,0,1,97.3-88.322a21.077,21.077,0,0,1-1.646,8.5A17.646,17.646,0,0,1,90.8-73.333a22.406,22.406,0,0,1-7.873,4.181,35.763,35.763,0,0,1-10.72,1.468,47.632,47.632,0,0,1-9.741-.89,60.977,60.977,0,0,1-9.117-2.757A50.446,50.446,0,0,1,54.6-77.958q.89-3.514,2.135-7.161,8.184,3.558,14.233,3.558a14.974,14.974,0,0,0,7.072-1.378,4.96,4.96,0,0,0,2.535-4.76,5.226,5.226,0,0,0-.534-2.446,5.386,5.386,0,0,0-1.423-1.735,8.964,8.964,0,0,0-2-1.2q-1.112-.489-2.269-.934l-4.983-1.867a32.057,32.057,0,0,1-5.827-2.758,18.66,18.66,0,0,1-4.492-3.781,15.912,15.912,0,0,1-2.891-5.026,19.731,19.731,0,0,1-1.022-6.672,20.621,20.621,0,0,1,1.6-8.362,17.418,17.418,0,0,1,4.493-6.183,19.184,19.184,0,0,1,6.983-3.825,30.4,30.4,0,0,1,9.163-1.29,42.428,42.428,0,0,1,8.762.89,72.122,72.122,0,0,1,9.029,2.58,45.489,45.489,0,0,1-1.29,6.272,39.558,39.558,0,0,1-2.358,6.449q-2.313-.979-5.427-2.046a24.122,24.122,0,0,0-7.739-1.068,13.367,13.367,0,0,0-2.713.267,7.936,7.936,0,0,0-2.313.845,4.484,4.484,0,0,0-1.646,1.6,4.8,4.8,0,0,0-.623,2.535,4.438,4.438,0,0,0,1.69,3.825,17,17,0,0,0,4,2.135Zm53.109,22.062H120.962v16.9q-2.313.356-4.181.534t-3.38.178q-1.512,0-3.38-.178t-4.092-.534v-45.9a29.984,29.984,0,0,1,3.87-.623q1.913-.178,3.692-.178,1.69,0,3.647.178a27.077,27.077,0,0,1,3.825.623v15.657h13.166v-15.657a29.985,29.985,0,0,1,3.87-.623q1.913-.178,3.692-.178,1.69,0,3.647.178a27.078,27.078,0,0,1,3.825.623v45.9q-2.313.356-4.181.534t-3.38.178q-1.512,0-3.38-.178t-4.092-.534ZM156.9-91.524a31.8,31.8,0,0,1,1.468-9.919,21.088,21.088,0,0,1,4.359-7.695,19.242,19.242,0,0,1,7.161-4.938,26.091,26.091,0,0,1,9.874-1.735,26.351,26.351,0,0,1,9.963,1.735,19.242,19.242,0,0,1,7.161,4.937,21.089,21.089,0,0,1,4.359,7.7,31.8,31.8,0,0,1,1.468,9.919,30.665,30.665,0,0,1-1.468,9.741,20.755,20.755,0,0,1-4.359,7.562,19.048,19.048,0,0,1-7.161,4.847,26.968,26.968,0,0,1-9.963,1.69,26.7,26.7,0,0,1-9.874-1.69,19.048,19.048,0,0,1-7.161-4.848,20.754,20.754,0,0,1-4.359-7.562,30.666,30.666,0,0,1-1.467-9.74Zm30.6,0q0-5.693-1.913-8.719a6.419,6.419,0,0,0-5.827-3.024,6.317,6.317,0,0,0-5.782,3.025q-1.868,3.025-1.868,8.719,0,5.6,1.868,8.629a6.317,6.317,0,0,0,5.782,3.025,6.421,6.421,0,0,0,5.827-3.025q1.913-3.025,1.912-8.63Zm37.63.534a8.8,8.8,0,0,0,1.112.134q.667.045,1.112.045a8.086,8.086,0,0,0,5.115-1.557q2-1.557,2-5.293a6.181,6.181,0,0,0-2-4.937,7.273,7.273,0,0,0-4.937-1.735h-1.023a11.121,11.121,0,0,0-1.378.089Zm-14.678-23.575q4.092-.622,8.406-.932t8.318-.311a42.115,42.115,0,0,1,8.006.756,19.8,19.8,0,0,1,7.028,2.758,14.837,14.837,0,0,1,5.026,5.515,19.008,19.008,0,0,1,1.913,9.119,18.972,18.972,0,0,1-1.735,8.54,15.568,15.568,0,0,1-4.581,5.6,18.273,18.273,0,0,1-6.449,3.068,29.126,29.126,0,0,1-7.339.934q-1.512,0-2.58-.089a7.835,7.835,0,0,1-1.334-.178v10.942a36.133,36.133,0,0,1-4.137.578q-1.824.134-3.247.134-1.512,0-3.247-.134a36.73,36.73,0,0,1-4.048-.578Z" transform="translate(0.33 230.29)" fill="#fff"/>
        </g>
        <g transform="matrix(1, 0, 0, 1, -6, -96.51)" filter="url(#Path_5853)">
          <path id="Path_5853-2" data-name="Path 5853" d="M5.8-17.147a.265.265,0,0,1-.109-.022c-.109-.591-.2-3.259-.2-4.485a2.84,2.84,0,0,1,.022-.613,2.342,2.342,0,0,1,.547-.045c1.509,0,3.828.5,3.828,2.3C9.893-18.416,7.661-17.147,5.8-17.147Zm3.084-9.581c0,1.706-2.58,2.231-3.216,2.231-.087,0-.109,0-.131-.022,0-.066.109-3.631.131-3.653a1.291,1.291,0,0,1,.437-.044C6.983-28.216,8.886-27.954,8.886-26.729ZM2.958-14.72a9.635,9.635,0,0,0,1.116.066c4.156,0,8.859-1.531,8.859-5.6,0-2.647-3.107-3.391-3.522-3.566,0-.022.044-.066.044-.066.437-.2,2.669-1.378,2.669-3.457,0-2.45-3.588-3.128-6.3-3.128a18.648,18.648,0,0,0-4,.284.1.1,0,0,0-.022.066A6.333,6.333,0,0,0,2.826-28a4.939,4.939,0,0,1,.044.919c0,1.75-.109,5.644-.109,8.356A37.992,37.992,0,0,0,2.958-14.72Zm18.2-1.772c.109,1.356.569,1.925.656,1.925a3.79,3.79,0,0,0,2.428-1.181,3.816,3.816,0,0,1-.591-1.75,13.49,13.49,0,0,1-.087-1.925c0-2.405.175-5.95.175-6.1a1.367,1.367,0,0,0-.547-.087,2.842,2.842,0,0,0-1.947.634c-.066.153-.131,2.756-.131,4.309v.744c.022.2-.634,1.663-1.772,1.663-1.247,0-1.225-1.772-1.225-1.772-.022-.394-.044-.853-.044-1.334,0-1.6.131-3.347.131-3.5-.109-.109-.613-.109-.613-.109a3.055,3.055,0,0,0-1.837.459,32.371,32.371,0,0,0-.2,4.266c0,.634.022,1.181.044,1.466.153,1.619.656,3.566,2.625,3.566a3.719,3.719,0,0,0,2.888-1.772s.022,0,.022.044Zm11.156-.044c0,4.769-2.363,5.162-3.762,5.359a2.378,2.378,0,0,1-.394.022A3.75,3.75,0,0,0,28.968-8.9c1.684,0,5.775-1.006,5.775-7.044,0-1.072-.022-3.566-.022-5.819a25.023,25.023,0,0,1,.175-3.544c0-.066-.153-.066-.328-.066a4.137,4.137,0,0,0-2.253.591,8.762,8.762,0,0,0-.109,2.013c0,1.269.044,2.647.044,2.647s-.263,1.684-1.706,1.684c-1.181,0-1.422-1.663-1.422-3.762a25.872,25.872,0,0,1,.241-3.347,2.132,2.132,0,0,0-.7-.109,2.925,2.925,0,0,0-1.772.459,13.37,13.37,0,0,0-.241,2.537c0,3.741.066,6.912,2.8,6.912a3.282,3.282,0,0,0,2.713-1.487q.033-.066.066-.066c.044,0,.066.087.066.131,0,.11.02.416.02.635ZM47.1-24.3s-.022-.394-.022-.919a11.709,11.709,0,0,1,.131-2.405,20.108,20.108,0,0,1,4.047-.328,3.355,3.355,0,0,1,.656.044,3.357,3.357,0,0,0,.941-2.187,8.17,8.17,0,0,0-1.837-.087c-1.881,0-7.5.066-7.678.241A6.958,6.958,0,0,0,44.346-27.6a6.367,6.367,0,0,1,.044,1.027c0,.613-.022,1.444-.022,2.363a9.059,9.059,0,0,0-1.159.066,4.056,4.056,0,0,0,1.116,2.363c-.022,1.116-.044,2.253-.044,3.259a22.541,22.541,0,0,0,.131,3.084,19.959,19.959,0,0,0,3.434.175,24.256,24.256,0,0,0,4.331-.219,4.094,4.094,0,0,0,1.094-2.341c0-.022-.022-.022-.044-.022a18.26,18.26,0,0,1-2.3.153c-.634,0-3.457-.044-3.762-.351a29.5,29.5,0,0,1-.109-3.084,3.779,3.779,0,0,1,.022-.678,19.251,19.251,0,0,1,3.544-.328,4.243,4.243,0,0,0,.766-2.122,10.584,10.584,0,0,0-1.794-.066c-.744,0-1.619,0-2.494.023Zm12.556,5.624c-.066.109-.087,0-.087,0-.678-1.509-2.013-6.934-2.013-6.934a3.219,3.219,0,0,0-2.319.634c0,1.6,2.778,8.618,2.778,9.669a2.974,2.974,0,0,0,1.006.131,6.406,6.406,0,0,0,2.1-.351,97.337,97.337,0,0,0,3.325-10.894s-.131-.219-1.334-.219c-.5,0-1.334.153-1.356.328A44.726,44.726,0,0,1,59.659-18.678Zm12.25-3.938c0,1.466-1.925,2.778-2.844,2.8-.087,0-.087-.066-.087-.306,0-1.729,1.072-3.128,2.253-3.128a.617.617,0,0,1,.483.163.617.617,0,0,1,.2.471Zm-.963,7.459a5.583,5.583,0,0,0,2.866-.5,3.547,3.547,0,0,0,.547-1.969c0-.131-.022-.416-.066-.416a.075.075,0,0,0-.044.022,5.287,5.287,0,0,1-2.625.591c-1.137,0-1.6-.459-1.6-.591,2.8-.963,4.441-2.953,4.441-4.812,0-1.947-1.729-2.384-2.756-2.384-3.544,0-5.294,2.6-5.294,5.447C66.418-17.213,67.884-15.157,70.946-15.157ZM83.24-24.323a1.691,1.691,0,0,0-.175-.831,4.348,4.348,0,0,0-3.259,1.75c-.044.044-.066.044-.087.044-.044,0-.044-.459-.044-.5,0-.569.044-1.4.066-1.6,0-.066-.263-.109-.459-.109a3.355,3.355,0,0,0-1.991.613,4.877,4.877,0,0,0-.087,1.378c0,1.269.044,3.216.044,4.966a24.112,24.112,0,0,1-.153,3.457c0,.066.087.066.175.066a4.187,4.187,0,0,0,2.405-.591,22.834,22.834,0,0,0,.066-2.691V-20.3a2.82,2.82,0,0,1,2.822-2.078,2.3,2.3,0,0,1,.284.044A3.551,3.551,0,0,0,83.24-24.323Zm7.634,7.788c0,4.769-2.363,5.162-3.762,5.359a2.377,2.377,0,0,1-.394.022A3.75,3.75,0,0,0,87.527-8.9c1.684,0,5.775-1.006,5.775-7.044,0-1.072-.022-3.566-.022-5.819a25.023,25.023,0,0,1,.175-3.544c0-.066-.153-.066-.328-.066a4.137,4.137,0,0,0-2.253.591,8.762,8.762,0,0,0-.109,2.013c0,1.269.044,2.647.044,2.647s-.263,1.684-1.706,1.684c-1.181,0-1.422-1.663-1.422-3.762a25.872,25.872,0,0,1,.241-3.347,2.133,2.133,0,0,0-.7-.109,2.926,2.926,0,0,0-1.772.459,13.371,13.371,0,0,0-.241,2.537c0,3.741.066,6.912,2.8,6.912a3.282,3.282,0,0,0,2.713-1.487q.033-.066.066-.066c.044,0,.066.087.066.131C90.853-17.06,90.874-16.754,90.874-16.535ZM99.3-29.989c0-.044-.351-.087-.547-.087-.787,0-2.1.481-2.1.787a16.261,16.261,0,0,1,.131,2.078c-.678.022-1.159.044-1.159.044a2.473,2.473,0,0,0-.2,1.2,1.716,1.716,0,0,0,.109.766s.547-.022,1.225-.022c-.022.875-.066,4.178-.066,6.541,0,1.094,0,1.991.044,2.341a2.853,2.853,0,0,0,.919,2.056,3.354,3.354,0,0,0,2.428-1.159,2.947,2.947,0,0,1-.9-1.859c-.044-.459-.066-1.619-.066-3.084s.022-3.259.044-4.878h1.027c.241,0,.634-.853.634-1.9a9.42,9.42,0,0,0-1.641-.066c.045-1.4.088-2.47.11-2.755Zm11.419,11.835c0-3.609-.044-6.978-2.691-6.978a4.108,4.108,0,0,0-2.822,1.378s-.044.044-.066.044c-.066,0-.066-.109-.066-.109v-.2c0-1.2.131-6.147.153-6.366,0-.044-.351-.087-.526-.087a3.359,3.359,0,0,0-2.01.743,9.572,9.572,0,0,0-.109,2.231c0,1.991.066,5.011.066,7.591a38.65,38.65,0,0,1-.175,4.747c0,.066.087.066.175.066a4.139,4.139,0,0,0,2.405-.591,9.882,9.882,0,0,0,.109-2.166c0-1.378-.044-2.888-.044-2.888s.613-1.663,1.816-1.663c1.181,0,1.334,1.619,1.334,3.741a34.158,34.158,0,0,1-.219,3.741,2.362,2.362,0,0,0,.722.109,3.4,3.4,0,0,0,1.859-.437C110.628-15.2,110.715-16.973,110.715-18.154Zm5.972-9.1a1.329,1.329,0,0,0-1.356-1.466,1.608,1.608,0,0,0-1.553,1.466,1.3,1.3,0,0,0,1.334,1.487A1.614,1.614,0,0,0,116.687-27.254Zm-.831,2.735a3.033,3.033,0,0,0-1.772.394c-.087.175-.153,3.5-.153,5.753,0,.9.022,1.619.044,1.9.131,1.356.569,1.925.656,1.925a3.79,3.79,0,0,0,2.428-1.181,3.576,3.576,0,0,1-.591-1.751c-.044-.372-.066-1.247-.066-2.253,0-2.013.066-4.55.066-4.66C116.359-24.519,115.856-24.519,115.856-24.519Zm3.981,6.125a24.647,24.647,0,0,1-.153,3.238c0,.066.153.066.328.066a4,4,0,0,0,2.253-.591,16.234,16.234,0,0,0,.087-2.428c0-1.378-.022-2.8-.022-2.778,0,0,.394-1.553,1.816-1.553,1.2,0,1.291,1.663,1.291,3.784a34.152,34.152,0,0,1-.219,3.741,2.362,2.362,0,0,0,.722.109,3.5,3.5,0,0,0,1.881-.437s.066-1.116.066-2.559c0-3.741-.066-7.328-2.8-7.328a3.719,3.719,0,0,0-2.691,1.378s-.044.044-.066.044c-.044,0-.066-.087-.066-.437,0-.416.044-.963.066-1.137,0-.066-.263-.109-.459-.109a3.355,3.355,0,0,0-1.991.613,4.373,4.373,0,0,0-.109,1.466C119.771-22.026,119.837-20.123,119.837-18.394Zm12.906,7.262h-.416a3.771,3.771,0,0,0,.809,2.275c1.684,0,5.862-1.027,5.862-7.044,0-.613-.044-3.15-.044-5.185v-2.779a2.511,2.511,0,0,0-.941-.131h-.241s.022-.219.022-.328a5.217,5.217,0,0,0-.066-.809c0-.109-.766-.109-.766-.109-4.4,0-6.519,2.734-6.519,6.038,0,1.75,1.137,3.762,3.216,3.762a3.262,3.262,0,0,0,2.866-1.422s.044-.066.066-.066.022.022.022.087c0,5.251-2.756,5.71-3.872,5.71Zm3.828-11.791c-.066.526-.087,2.866-.087,3.194a2.035,2.035,0,0,1-1.881,1.6,1.568,1.568,0,0,1-1.531-1.684,2.961,2.961,0,0,1,3.041-3.172S136.571-22.987,136.571-22.922Zm6.694,2.888a3.091,3.091,0,0,0,.9-.153c.044-.831.372-5.906.372-6.694a22.971,22.971,0,0,1,.459-2.953c.022-.109-.613-.394-1.706-.394,0,0-1.422.044-1.663.284a79.44,79.44,0,0,1,.744,9.8,2.926,2.926,0,0,0,.9.109Zm1.509,3a1.466,1.466,0,0,0-1.466-1.466,1.466,1.466,0,0,0-1.466,1.466,1.466,1.466,0,0,0,1.466,1.466,1.466,1.466,0,0,0,1.466-1.466Z" transform="translate(53.85 209.77)" fill="#fff"/>
        </g>
      </g>
      <g id="Group_5042" data-name="Group 5042" transform="translate(85.138 0)">
        <g id="Group_5041" data-name="Group 5041" transform="translate(0 0)">
          <g transform="matrix(1, 0, 0, 1, -91.14, -5.5)" filter="url(#Path_5826)">
            <path id="Path_5826-2" data-name="Path 5826" d="M369.663,500.544a11.891,11.891,0,0,1-10.324-6.029l-33.755-59.949a6.852,6.852,0,0,0-5.235-3.446l-16.265-1.735a2.38,2.38,0,0,1-2.112-2.617l.025-.237a2.378,2.378,0,0,1,2.617-2.112l16.264,1.734a11.857,11.857,0,0,1,9.058,5.963l33.755,59.948a6.865,6.865,0,0,0,6.46,3.466l42.916-3.14a2.379,2.379,0,0,1,2.546,2.2l.018.237a2.379,2.379,0,0,1-2.2,2.546l-42.916,3.141Q370.088,500.544,369.663,500.544Z" transform="translate(-210.82 -418.91)" fill="#fff"/>
          </g>
        </g>
        <g transform="matrix(1, 0, 0, 1, -91.14, -5.5)" filter="url(#Path_5827)">
          <path id="Path_5827-2" data-name="Path 5827" d="M462,494.909c-1.474.468-2.6,1.8-4.277,1.748-.013-.568.331-.774.68-.974-.351-.843.537-1.011.974-1.361.518-1.424,1.729-2.155,2.429-3.4.237.044.212-.175.487-.094,2-2.011,4.452-3.584,6.612-5.445.755.225,1.105-.762,1.942-.78A25.194,25.194,0,0,1,462,494.909Z" transform="translate(-269.32 -441.52)" fill="#fff"/>
        </g>
        <g transform="matrix(1, 0, 0, 1, -91.14, -5.5)" filter="url(#Path_5828)">
          <path id="Path_5828-2" data-name="Path 5828" d="M449.928,453H375.907a2.564,2.564,0,0,0-2.273,3.746l20.655,39.53a5.3,5.3,0,0,0,4.839,2.841l40.747-1.049a6.411,6.411,0,0,0,5.894-4.309l10.877-31.313A7.115,7.115,0,0,0,449.928,453Zm-5.969,31.3c-1.786,2.167-3.5,4.409-6.119,5.737a2.81,2.81,0,0,1-1.654,1.455c.156.5-.968.337-.974.974-.818.212-1.361.119-1.648.874-1.417.081-2.023.768-3.309.387-.094.231-.418.231-.581.393-.294-.162-.837-.075-.974-.393-.5.243-1.811.225-1.942-.481-.693.294-.987-.462-1.654-.487-1.267-1.361-2.623-2.155-3.11-4.377a3.145,3.145,0,0,1-.78-1.848c-1.043-1.249-2.922-.718-4.858-.874-1.149-.087-2.629-.955-3.821-.88l-.144-.006.244-.137c2.872-.031,5.519.369,8.192-.044a16.511,16.511,0,0,1,.68-3.016,5.408,5.408,0,0,1,.387-2.136c.181-.287.568-.4.78-.68.593-.78.943-1.7,1.555-2.529.962-1.292,2.073-2.416,3.109-3.7,2.167-1.461,4.059-3.322,6.419-4.564.5-.269,1.1-.351,1.455-.874,1.024-.156,1.58-.793,2.529-.681,1.305.15,2.2,1.573,3.3,1.942.362.069.418-.169.78-.094,1.611.9,1.873,2.754,1.068,4.664-.206.493-.724,1.005-1.068,1.648a21.02,21.02,0,0,1-1.748,3.209c-.187.231-.506.362-.68.587a16.221,16.221,0,0,1-2.235,2.33c-3.016,1.236-4.789,3.7-7.873,4.864a17.638,17.638,0,0,1-2.335,1.355c-.737-.2-.936.381-1.361.2-1.392,3.1,4.758,2.985,6.125,3.109,1.417-.368,2.448-1.118,3.883-1.461A74.305,74.305,0,0,0,447.076,481,18.224,18.224,0,0,1,443.959,484.3Z" transform="translate(-237.64 -429.64)" fill="#fff"/>
        </g>
        <g transform="matrix(1, 0, 0, 1, -91.14, -5.5)" filter="url(#Ellipse_475)">
          <ellipse id="Ellipse_475-2" data-name="Ellipse 475" cx="6.01" cy="6.79" rx="6.01" ry="6.79" transform="translate(155.71 87.2)" fill="#fff"/>
        </g>
        <g transform="matrix(1, 0, 0, 1, -91.14, -5.5)" filter="url(#Ellipse_476)">
          <ellipse id="Ellipse_476-2" data-name="Ellipse 476" cx="6.79" cy="5.659" rx="6.79" ry="5.659" transform="translate(190.5 96.28) rotate(-84.33)" fill="#fff"/>
        </g>
      </g>
    </g>
  </g>
</svg>
