<svg xmlns="http://www.w3.org/2000/svg" xmlns:xlink="http://www.w3.org/1999/xlink" width="153.171" height="39.801" viewBox="0 0 153.171 39.801">
  <defs>
    <linearGradient id="linear-gradient" x2="1" y2="1" gradientUnits="objectBoundingBox">
      <stop offset="0" stop-color="#ffbd69"/>
      <stop offset="1" stop-color="#ff6363"/>
    </linearGradient>
    <filter id="Path_5852" x="58.088" y="4.756" width="95.083" height="30.186" filterUnits="userSpaceOnUse">
      <feOffset dy="1" input="SourceAlpha"/>
      <feGaussianBlur stdDeviation="1" result="blur"/>
      <feFlood flood-opacity="0.161"/>
      <feComposite operator="in" in2="blur"/>
      <feComposite in="SourceGraphic"/>
    </filter>
    <filter id="Path_5826" x="0" y="0" width="46.34" height="32.961" filterUnits="userSpaceOnUse">
      <feOffset dy="1" input="SourceAlpha"/>
      <feGaussianBlur stdDeviation="1" result="blur-2"/>
      <feFlood flood-opacity="0.161"/>
      <feComposite operator="in" in2="blur-2"/>
      <feComposite in="SourceGraphic"/>
    </filter>
    <filter id="Path_5827" x="34.522" y="13.338" width="10.646" height="10.27" filterUnits="userSpaceOnUse">
      <feOffset dy="1" input="SourceAlpha"/>
      <feGaussianBlur stdDeviation="1" result="blur-3"/>
      <feFlood flood-opacity="0.161"/>
      <feComposite operator="in" in2="blur-3"/>
      <feComposite in="SourceGraphic"/>
    </filter>
    <filter id="Path_5828" x="15.867" y="6.346" width="35.636" height="22.33" filterUnits="userSpaceOnUse">
      <feOffset dy="1" input="SourceAlpha"/>
      <feGaussianBlur stdDeviation="1" result="blur-4"/>
      <feFlood flood-opacity="0.161"/>
      <feComposite operator="in" in2="blur-4"/>
      <feComposite in="SourceGraphic"/>
    </filter>
    <filter id="Ellipse_475" x="22.911" y="28.992" width="10.256" height="10.809" filterUnits="userSpaceOnUse">
      <feOffset dy="1" input="SourceAlpha"/>
      <feGaussianBlur stdDeviation="1" result="blur-5"/>
      <feFlood flood-opacity="0.161"/>
      <feComposite operator="in" in2="blur-5"/>
      <feComposite in="SourceGraphic"/>
    </filter>
    <filter id="Ellipse_476" x="35.271" y="27.426" width="10.463" height="11.182" filterUnits="userSpaceOnUse">
      <feOffset dy="1" input="SourceAlpha"/>
      <feGaussianBlur stdDeviation="1" result="blur-6"/>
      <feFlood flood-opacity="0.161"/>
      <feComposite operator="in" in2="blur-6"/>
      <feComposite in="SourceGraphic"/>
    </filter>
  </defs>
  <g id="titleicon" transform="translate(-190.67 -556.004)">
    <g id="sublogo" transform="translate(251.758 562.759)">
      <g transform="matrix(1, 0, 0, 1, -61.09, -6.75)" filter="url(#Path_5852)">
        <path id="Path_5852-2" data-name="Path 5852" d="M11.2-116.653a3.009,3.009,0,0,0,1.253,1.887,4.443,4.443,0,0,0,2.358.555,11.185,11.185,0,0,0,2.115-.228,12.778,12.778,0,0,0,2.311-.683,10.426,10.426,0,0,1,.8,2.018,9.556,9.556,0,0,1,.375,2.44,16.912,16.912,0,0,1-5.923,1.075,11.108,11.108,0,0,1-4.019-.651,7.133,7.133,0,0,1-2.733-1.807,7.25,7.25,0,0,1-1.563-2.75,11.5,11.5,0,0,1-.5-3.482,11.361,11.361,0,0,1,.521-3.484A8,8,0,0,1,7.754-124.6a7.368,7.368,0,0,1,2.6-1.9A8.846,8.846,0,0,1,14-127.2a7.66,7.66,0,0,1,3.076.586A6.7,6.7,0,0,1,19.373-125a7,7,0,0,1,1.448,2.474,9.486,9.486,0,0,1,.505,3.142,13.776,13.776,0,0,1-.081,1.578q-.081.7-.147,1.155Zm2.6-6.411a2.637,2.637,0,0,0-1.79.651,2.924,2.924,0,0,0-.879,2.018h5.208a3.178,3.178,0,0,0-.7-1.9,2.253,2.253,0,0,0-1.84-.765Zm19.43-1.2q1.367.555,2.456,1.123a7.371,7.371,0,0,1,1.871,1.367,5.452,5.452,0,0,1,1.2,1.92,7.729,7.729,0,0,1,.423,2.718,7.711,7.711,0,0,1-.6,3.108,6.456,6.456,0,0,1-1.774,2.377,8.2,8.2,0,0,1-2.88,1.53,13.085,13.085,0,0,1-3.92.537,17.427,17.427,0,0,1-3.565-.325,22.307,22.307,0,0,1-3.336-1.009,18.456,18.456,0,0,1,.456-2.425q.325-1.286.781-2.62a13.422,13.422,0,0,0,5.207,1.3,5.479,5.479,0,0,0,2.588-.5,1.813,1.813,0,0,0,.927-1.741,1.912,1.912,0,0,0-.2-.895,1.971,1.971,0,0,0-.521-.634,3.28,3.28,0,0,0-.732-.439q-.407-.179-.83-.342l-1.822-.683a11.729,11.729,0,0,1-2.132-1.009A6.827,6.827,0,0,1,25.2-122.3a5.822,5.822,0,0,1-1.058-1.839,7.215,7.215,0,0,1-.374-2.441,7.544,7.544,0,0,1,.586-3.059A6.372,6.372,0,0,1,26-131.9a7.018,7.018,0,0,1,2.555-1.4,11.124,11.124,0,0,1,3.352-.472,15.522,15.522,0,0,1,3.206.325,26.39,26.39,0,0,1,3.3.944,16.642,16.642,0,0,1-.472,2.295,14.471,14.471,0,0,1-.862,2.36q-.845-.358-1.985-.749a8.826,8.826,0,0,0-2.831-.391,4.889,4.889,0,0,0-.993.1,2.9,2.9,0,0,0-.845.309,1.64,1.64,0,0,0-.6.586,1.755,1.755,0,0,0-.228.927,1.624,1.624,0,0,0,.618,1.4,6.22,6.22,0,0,0,1.465.781Zm19.43,8.071H47.851v6.185q-.845.13-1.53.2t-1.237.065q-.555,0-1.237-.065t-1.5-.2v-16.8a10.967,10.967,0,0,1,1.416-.228q.7-.065,1.351-.065.618,0,1.334.065a9.9,9.9,0,0,1,1.4.228v5.728h4.817v-5.728a10.967,10.967,0,0,1,1.416-.228q.7-.065,1.351-.065.618,0,1.334.065a9.907,9.907,0,0,1,1.4.228v16.8q-.845.13-1.53.2t-1.237.065q-.555,0-1.237-.065t-1.5-.2ZM61-118.312a11.634,11.634,0,0,1,.537-3.629,7.715,7.715,0,0,1,1.595-2.815,7.04,7.04,0,0,1,2.62-1.806,9.546,9.546,0,0,1,3.613-.634,9.641,9.641,0,0,1,3.644.634,7.04,7.04,0,0,1,2.62,1.806,7.716,7.716,0,0,1,1.595,2.815,11.634,11.634,0,0,1,.537,3.629,11.219,11.219,0,0,1-.537,3.565,7.593,7.593,0,0,1-1.595,2.766,6.969,6.969,0,0,1-2.62,1.774,9.867,9.867,0,0,1-3.644.618,9.769,9.769,0,0,1-3.613-.618,6.969,6.969,0,0,1-2.62-1.774,7.593,7.593,0,0,1-1.595-2.766A11.219,11.219,0,0,1,61-118.313Zm11.2,0a6,6,0,0,0-.7-3.189,2.35,2.35,0,0,0-2.132-1.106,2.311,2.311,0,0,0-2.116,1.106,6.113,6.113,0,0,0-.683,3.189,6.037,6.037,0,0,0,.683,3.157,2.311,2.311,0,0,0,2.116,1.106,2.35,2.35,0,0,0,2.132-1.106,5.93,5.93,0,0,0,.7-3.157Zm13.767.2a3.223,3.223,0,0,0,.407.049q.244.016.407.016a2.958,2.958,0,0,0,1.871-.57,2.31,2.31,0,0,0,.732-1.936,2.261,2.261,0,0,0-.732-1.806A2.661,2.661,0,0,0,86.842-123h-.374a4.07,4.07,0,0,0-.5.032Zm-5.37-8.625q1.5-.228,3.076-.342t3.043-.114a15.408,15.408,0,0,1,2.929.277,7.246,7.246,0,0,1,2.571,1.009,5.428,5.428,0,0,1,1.839,2.018,6.953,6.953,0,0,1,.7,3.336,6.941,6.941,0,0,1-.634,3.125,5.7,5.7,0,0,1-1.676,2.05,6.685,6.685,0,0,1-2.36,1.123,10.656,10.656,0,0,1-2.685.342q-.555,0-.944-.032a2.867,2.867,0,0,1-.488-.065v4a13.22,13.22,0,0,1-1.513.211q-.667.049-1.188.049-.555,0-1.188-.049a13.438,13.438,0,0,1-1.481-.211Z" transform="translate(55.42 140.53)" fill="url(#linear-gradient)"/>
      </g>
    </g>
    <g id="Group_5042" data-name="Group 5042" transform="translate(193.67 558.004)">
      <g id="Group_5041" data-name="Group 5041" transform="translate(0 0)">
        <g transform="matrix(1, 0, 0, 1, -3, -2)" filter="url(#Path_5826)">
          <path id="Path_5826-2" data-name="Path 5826" d="M325.984,451.365a4.221,4.221,0,0,1-3.663-2.135L310.342,428a2.432,2.432,0,0,0-1.858-1.22l-5.772-.614a.843.843,0,0,1-.749-.927l.009-.084a.843.843,0,0,1,.929-.748l5.771.614a4.208,4.208,0,0,1,3.214,2.111l11.978,21.227a2.437,2.437,0,0,0,2.292,1.227l15.229-1.112a.843.843,0,0,1,.9.778l.006.084a.843.843,0,0,1-.78.9l-15.229,1.112Q326.135,451.365,325.984,451.365Z" transform="translate(-298.96 -422.4)" fill="url(#linear-gradient)"/>
        </g>
      </g>
      <g transform="matrix(1, 0, 0, 1, -3, -2)" filter="url(#Path_5827)">
        <path id="Path_5827-2" data-name="Path 5827" d="M459.234,488.25c-.522.166-.922.637-1.514.619,0-.2.117-.274.241-.345-.124-.3.19-.358.345-.482.184-.5.612-.763.86-1.2.084.016.075-.062.172-.033.71-.713,1.576-1.269,2.341-1.928.268.079.391-.27.687-.276A8.921,8.921,0,0,1,459.234,488.25Z" transform="translate(-420.2 -469.26)" fill="url(#linear-gradient)"/>
      </g>
      <g transform="matrix(1, 0, 0, 1, -3, -2)" filter="url(#Path_5828)">
        <path id="Path_5828-2" data-name="Path 5828" d="M400.453,453h-26.21a.908.908,0,0,0-.8,1.326l7.315,14a1.875,1.875,0,0,0,1.714,1.006l14.428-.371a2.271,2.271,0,0,0,2.086-1.526l3.852-11.088A2.519,2.519,0,0,0,400.453,453Zm-2.113,11.083a7.11,7.11,0,0,1-2.165,2.032,1,1,0,0,1-.586.515c.055.177-.343.119-.345.345-.29.075-.482.042-.584.31-.5.029-.716.272-1.172.137-.033.082-.148.082-.206.139-.1-.057-.3-.026-.345-.139-.177.086-.641.079-.687-.17-.245.1-.349-.164-.586-.172-.449-.482-.928-.763-1.1-1.55a1.114,1.114,0,0,1-.276-.654c-.37-.442-1.035-.254-1.72-.31a10.81,10.81,0,0,0-1.353-.312l-.051,0,.086-.049a20.742,20.742,0,0,0,2.9-.016,5.84,5.84,0,0,1,.241-1.068,1.917,1.917,0,0,1,.137-.756c.064-.1.2-.142.276-.241.211-.276.334-.6.551-.9.34-.458.734-.856,1.1-1.309a25.2,25.2,0,0,1,2.273-1.616c.177-.1.389-.124.515-.31.363-.055.559-.281.9-.241.462.053.778.557,1.17.687.128.024.148-.06.276-.033a1.215,1.215,0,0,1,.378,1.651c-.073.175-.256.356-.378.584a7.437,7.437,0,0,1-.619,1.135c-.066.082-.179.128-.241.208a5.745,5.745,0,0,1-.792.825c-1.068.438-1.7,1.311-2.788,1.722a6.256,6.256,0,0,1-.827.48c-.261-.071-.332.135-.482.071-.493,1.1,1.685,1.056,2.169,1.1.5-.13.867-.4,1.375-.517a26.335,26.335,0,0,0,4.064-2.753,6.456,6.456,0,0,1-1.106,1.172Z" transform="translate(-354.47 -444.66)" fill="url(#linear-gradient)"/>
      </g>
      <g transform="matrix(1, 0, 0, 1, -3, -2)" filter="url(#Ellipse_475)">
        <ellipse id="Ellipse_475-2" data-name="Ellipse 475" cx="2.128" cy="2.404" rx="2.128" ry="2.404" transform="translate(25.91 30.99)" fill="url(#linear-gradient)"/>
      </g>
      <g transform="matrix(1, 0, 0, 1, -3, -2)" filter="url(#Ellipse_476)">
        <ellipse id="Ellipse_476-2" data-name="Ellipse 476" cx="2.404" cy="2.004" rx="2.404" ry="2.004" transform="translate(38.27 34.21) rotate(-84.33)" fill="url(#linear-gradient)"/>
      </g>
    </g>
  </g>
</svg>
